<mxfile host="app.diagrams.net" modified="2023-05-08T22:17:26.712Z" agent="Mozilla/5.0 (Windows NT 10.0; Win64; x64) AppleWebKit/537.36 (KHTML, like Gecko) Chrome/113.0.0.0 Safari/537.36" etag="25viLvH_7fQ2XGJUI3rx" version="21.2.9" type="github">
  <diagram id="DxEy4AewGMRTmrpIX870" name="Sayfa -1">
    <mxGraphModel dx="2117" dy="1750" grid="1" gridSize="13" guides="1" tooltips="1" connect="1" arrows="1" fold="1" page="1" pageScale="1" pageWidth="827" pageHeight="1169" math="0" shadow="0">
      <root>
        <mxCell id="0" />
        <mxCell id="1" parent="0" />
        <mxCell id="j6KMdEsS2Ehn0cWHgv-K-1" value="&lt;h1&gt;&lt;font style=&quot;font-size: 21px;&quot;&gt;&lt;b&gt;Client&lt;/b&gt;&lt;/font&gt;&lt;/h1&gt;" style="rounded=0;whiteSpace=wrap;html=1;" parent="1" vertex="1">
          <mxGeometry x="-598" y="322" width="120" height="60" as="geometry" />
        </mxCell>
        <mxCell id="j6KMdEsS2Ehn0cWHgv-K-9" value="" style="edgeStyle=orthogonalEdgeStyle;rounded=0;orthogonalLoop=1;jettySize=auto;html=1;strokeWidth=1;" parent="1" source="j6KMdEsS2Ehn0cWHgv-K-6" target="D8szwjgX1KIRaP4R6oDy-26" edge="1">
          <mxGeometry relative="1" as="geometry">
            <mxPoint x="507" y="351" as="targetPoint" />
          </mxGeometry>
        </mxCell>
        <mxCell id="j6KMdEsS2Ehn0cWHgv-K-43" value="" style="edgeStyle=orthogonalEdgeStyle;rounded=0;orthogonalLoop=1;jettySize=auto;html=1;exitX=0.75;exitY=1;exitDx=0;exitDy=0;" parent="1" source="j6KMdEsS2Ehn0cWHgv-K-6" target="j6KMdEsS2Ehn0cWHgv-K-42" edge="1">
          <mxGeometry relative="1" as="geometry">
            <Array as="points">
              <mxPoint x="363" y="442" />
              <mxPoint x="467" y="442" />
            </Array>
          </mxGeometry>
        </mxCell>
        <mxCell id="j6KMdEsS2Ehn0cWHgv-K-47" value="" style="edgeStyle=orthogonalEdgeStyle;rounded=0;orthogonalLoop=1;jettySize=auto;html=1;exitX=0.237;exitY=1.005;exitDx=0;exitDy=0;exitPerimeter=0;" parent="1" source="j6KMdEsS2Ehn0cWHgv-K-6" target="j6KMdEsS2Ehn0cWHgv-K-46" edge="1">
          <mxGeometry relative="1" as="geometry" />
        </mxCell>
        <mxCell id="j6KMdEsS2Ehn0cWHgv-K-6" value="&lt;h1 style=&quot;border-color: var(--border-color);&quot;&gt;&lt;span style=&quot;font-size: 21px;&quot;&gt;Flight&lt;/span&gt;&lt;/h1&gt;" style="whiteSpace=wrap;html=1;rounded=0;" parent="1" vertex="1">
          <mxGeometry x="273" y="320" width="120" height="60" as="geometry" />
        </mxCell>
        <mxCell id="j6KMdEsS2Ehn0cWHgv-K-8" value="&lt;h1 style=&quot;border-color: var(--border-color);&quot;&gt;&lt;font style=&quot;font-size: 21px;&quot;&gt;Airplane&lt;/font&gt;&lt;/h1&gt;" style="whiteSpace=wrap;html=1;rounded=0;" parent="1" vertex="1">
          <mxGeometry x="533" y="156" width="120" height="60" as="geometry" />
        </mxCell>
        <mxCell id="j6KMdEsS2Ehn0cWHgv-K-10" value="&lt;h1 style=&quot;border-color: var(--border-color);&quot;&gt;&lt;font style=&quot;border-color: var(--border-color); font-size: 21px;&quot;&gt;Airline&lt;/font&gt;&lt;/h1&gt;" style="rounded=0;whiteSpace=wrap;html=1;" parent="1" vertex="1">
          <mxGeometry x="877" y="734.5" width="120" height="60" as="geometry" />
        </mxCell>
        <mxCell id="j6KMdEsS2Ehn0cWHgv-K-26" value="" style="edgeStyle=orthogonalEdgeStyle;rounded=0;orthogonalLoop=1;jettySize=auto;html=1;" parent="1" source="j6KMdEsS2Ehn0cWHgv-K-16" target="j6KMdEsS2Ehn0cWHgv-K-25" edge="1">
          <mxGeometry relative="1" as="geometry" />
        </mxCell>
        <mxCell id="j6KMdEsS2Ehn0cWHgv-K-16" value="&lt;h1 style=&quot;border-color: var(--border-color);&quot;&gt;&lt;span style=&quot;font-size: 21px;&quot;&gt;Passenger&lt;/span&gt;&lt;/h1&gt;" style="whiteSpace=wrap;html=1;rounded=0;" parent="1" vertex="1">
          <mxGeometry x="-636" y="880" width="129" height="60" as="geometry" />
        </mxCell>
        <mxCell id="j6KMdEsS2Ehn0cWHgv-K-21" value="&lt;h1 style=&quot;border-color: var(--border-color);&quot;&gt;&lt;font style=&quot;font-size: 21px;&quot;&gt;Movement&lt;/font&gt;&lt;/h1&gt;" style="whiteSpace=wrap;html=1;rounded=0;" parent="1" vertex="1">
          <mxGeometry x="936" y="130" width="120" height="60" as="geometry" />
        </mxCell>
        <mxCell id="j6KMdEsS2Ehn0cWHgv-K-30" value="" style="edgeStyle=orthogonalEdgeStyle;rounded=0;orthogonalLoop=1;jettySize=auto;html=1;" parent="1" source="j6KMdEsS2Ehn0cWHgv-K-25" target="j6KMdEsS2Ehn0cWHgv-K-29" edge="1">
          <mxGeometry relative="1" as="geometry" />
        </mxCell>
        <mxCell id="j6KMdEsS2Ehn0cWHgv-K-25" value="&lt;font style=&quot;font-size: 20px;&quot;&gt;Has&lt;/font&gt;" style="rhombus;whiteSpace=wrap;html=1;rounded=0;" parent="1" vertex="1">
          <mxGeometry x="-611.5" y="743" width="80" height="80" as="geometry" />
        </mxCell>
        <mxCell id="j6KMdEsS2Ehn0cWHgv-K-76" value="" style="edgeStyle=orthogonalEdgeStyle;rounded=0;orthogonalLoop=1;jettySize=auto;html=1;entryX=0;entryY=0.5;entryDx=0;entryDy=0;shape=link;" parent="1" source="j6KMdEsS2Ehn0cWHgv-K-29" target="j6KMdEsS2Ehn0cWHgv-K-81" edge="1">
          <mxGeometry relative="1" as="geometry">
            <mxPoint x="-325" y="521" as="targetPoint" />
          </mxGeometry>
        </mxCell>
        <mxCell id="j6KMdEsS2Ehn0cWHgv-K-29" value="&lt;h1 style=&quot;border-color: var(--border-color);&quot;&gt;Ticket&lt;/h1&gt;" style="whiteSpace=wrap;html=1;rounded=0;" parent="1" vertex="1">
          <mxGeometry x="-478" y="491" width="120" height="60" as="geometry" />
        </mxCell>
        <mxCell id="j6KMdEsS2Ehn0cWHgv-K-34" value="&lt;font style=&quot;font-size: 17px;&quot;&gt;Leans On&lt;/font&gt;" style="rhombus;whiteSpace=wrap;html=1;rounded=0;" parent="1" vertex="1">
          <mxGeometry x="661.5" y="459" width="80" height="80" as="geometry" />
        </mxCell>
        <mxCell id="j6KMdEsS2Ehn0cWHgv-K-38" value="" style="edgeStyle=orthogonalEdgeStyle;rounded=0;orthogonalLoop=1;jettySize=auto;html=1;exitX=0.7;exitY=1.023;exitDx=0;exitDy=0;exitPerimeter=0;" parent="1" source="j6KMdEsS2Ehn0cWHgv-K-8" edge="1">
          <mxGeometry relative="1" as="geometry">
            <mxPoint x="718" y="381" as="sourcePoint" />
            <mxPoint x="937" y="437" as="targetPoint" />
            <Array as="points">
              <mxPoint x="650" y="217" />
              <mxPoint x="650" y="338" />
              <mxPoint x="937" y="338" />
            </Array>
          </mxGeometry>
        </mxCell>
        <mxCell id="j6KMdEsS2Ehn0cWHgv-K-39" value="" style="edgeStyle=orthogonalEdgeStyle;rounded=0;orthogonalLoop=1;jettySize=auto;html=1;entryX=0.5;entryY=0;entryDx=0;entryDy=0;shape=link;" parent="1" source="j6KMdEsS2Ehn0cWHgv-K-37" target="j6KMdEsS2Ehn0cWHgv-K-10" edge="1">
          <mxGeometry relative="1" as="geometry">
            <mxPoint x="887" y="734.5" as="targetPoint" />
          </mxGeometry>
        </mxCell>
        <mxCell id="j6KMdEsS2Ehn0cWHgv-K-37" value="&lt;font style=&quot;font-size: 15px;&quot;&gt;Belong to&lt;/font&gt;" style="rhombus;whiteSpace=wrap;html=1;" parent="1" vertex="1">
          <mxGeometry x="897" y="437" width="80" height="80" as="geometry" />
        </mxCell>
        <mxCell id="j6KMdEsS2Ehn0cWHgv-K-45" value="" style="edgeStyle=orthogonalEdgeStyle;rounded=0;orthogonalLoop=1;jettySize=auto;html=1;exitX=0.5;exitY=1;exitDx=0;exitDy=0;entryX=0.613;entryY=0.03;entryDx=0;entryDy=0;entryPerimeter=0;" parent="1" source="j6KMdEsS2Ehn0cWHgv-K-42" target="j6KMdEsS2Ehn0cWHgv-K-44" edge="1">
          <mxGeometry relative="1" as="geometry">
            <Array as="points">
              <mxPoint x="467" y="556" />
              <mxPoint x="468" y="556" />
              <mxPoint x="468" y="735" />
              <mxPoint x="572" y="735" />
              <mxPoint x="572" y="875" />
            </Array>
          </mxGeometry>
        </mxCell>
        <mxCell id="j6KMdEsS2Ehn0cWHgv-K-42" value="&lt;font style=&quot;font-size: 18px;&quot;&gt;Has&lt;/font&gt;" style="rhombus;whiteSpace=wrap;html=1;rounded=0;" parent="1" vertex="1">
          <mxGeometry x="427" y="481" width="80" height="80" as="geometry" />
        </mxCell>
        <mxCell id="j6KMdEsS2Ehn0cWHgv-K-44" value="&lt;h1 style=&quot;border-color: var(--border-color); font-size: 21px;&quot;&gt;Flight Situation&lt;/h1&gt;" style="whiteSpace=wrap;html=1;rounded=0;" parent="1" vertex="1">
          <mxGeometry x="513.75" y="873" width="120" height="60" as="geometry" />
        </mxCell>
        <mxCell id="j6KMdEsS2Ehn0cWHgv-K-46" value="" style="rhombus;whiteSpace=wrap;html=1;rounded=0;" parent="1" vertex="1">
          <mxGeometry x="261" y="491" width="80" height="80" as="geometry" />
        </mxCell>
        <mxCell id="j6KMdEsS2Ehn0cWHgv-K-50" value="" style="edgeStyle=orthogonalEdgeStyle;rounded=0;orthogonalLoop=1;jettySize=auto;html=1;" parent="1" source="j6KMdEsS2Ehn0cWHgv-K-48" target="j6KMdEsS2Ehn0cWHgv-K-49" edge="1">
          <mxGeometry relative="1" as="geometry" />
        </mxCell>
        <mxCell id="j6KMdEsS2Ehn0cWHgv-K-48" value="&lt;font style=&quot;font-size: 17px;&quot;&gt;Has&lt;/font&gt;" style="rhombus;whiteSpace=wrap;html=1;" parent="1" vertex="1">
          <mxGeometry x="265.5" y="498.5" width="71" height="65" as="geometry" />
        </mxCell>
        <mxCell id="j6KMdEsS2Ehn0cWHgv-K-49" value="&lt;span style=&quot;font-size: 21px;&quot;&gt;&lt;b&gt;Seats&lt;/b&gt;&lt;/span&gt;" style="whiteSpace=wrap;html=1;" parent="1" vertex="1">
          <mxGeometry x="241" y="681" width="120" height="60" as="geometry" />
        </mxCell>
        <mxCell id="j6KMdEsS2Ehn0cWHgv-K-51" value="&lt;span style=&quot;font-size: 21px;&quot;&gt;&lt;b&gt;Seat&lt;/b&gt;&lt;/span&gt;" style="whiteSpace=wrap;html=1;" parent="1" vertex="1">
          <mxGeometry x="249.75" y="687.5" width="102.5" height="47" as="geometry" />
        </mxCell>
        <mxCell id="j6KMdEsS2Ehn0cWHgv-K-55" value="" style="edgeStyle=orthogonalEdgeStyle;rounded=0;orthogonalLoop=1;jettySize=auto;html=1;" parent="1" source="j6KMdEsS2Ehn0cWHgv-K-53" target="j6KMdEsS2Ehn0cWHgv-K-54" edge="1">
          <mxGeometry relative="1" as="geometry" />
        </mxCell>
        <mxCell id="j6KMdEsS2Ehn0cWHgv-K-61" value="" style="edgeStyle=orthogonalEdgeStyle;rounded=0;orthogonalLoop=1;jettySize=auto;html=1;exitX=0.75;exitY=1;exitDx=0;exitDy=0;" parent="1" source="j6KMdEsS2Ehn0cWHgv-K-53" target="j6KMdEsS2Ehn0cWHgv-K-60" edge="1">
          <mxGeometry relative="1" as="geometry">
            <mxPoint x="-39" y="1027" as="sourcePoint" />
            <Array as="points">
              <mxPoint x="-97" y="1118" />
            </Array>
          </mxGeometry>
        </mxCell>
        <mxCell id="j6KMdEsS2Ehn0cWHgv-K-53" value="&lt;h1 style=&quot;border-color: var(--border-color);&quot;&gt;&lt;span style=&quot;font-size: 21px;&quot;&gt;Employee&lt;/span&gt;&lt;/h1&gt;" style="whiteSpace=wrap;html=1;rounded=0;" parent="1" vertex="1">
          <mxGeometry x="-187.5" y="1018.5" width="120" height="60" as="geometry" />
        </mxCell>
        <mxCell id="j6KMdEsS2Ehn0cWHgv-K-59" value="" style="edgeStyle=orthogonalEdgeStyle;rounded=0;orthogonalLoop=1;jettySize=auto;html=1;" parent="1" source="j6KMdEsS2Ehn0cWHgv-K-54" target="j6KMdEsS2Ehn0cWHgv-K-58" edge="1">
          <mxGeometry relative="1" as="geometry" />
        </mxCell>
        <mxCell id="j6KMdEsS2Ehn0cWHgv-K-54" value="&lt;font style=&quot;font-size: 17px;&quot;&gt;works&lt;/font&gt;" style="rhombus;whiteSpace=wrap;html=1;rounded=0;" parent="1" vertex="1">
          <mxGeometry x="61" y="954" width="80" height="80" as="geometry" />
        </mxCell>
        <mxCell id="j6KMdEsS2Ehn0cWHgv-K-58" value="&lt;h1 style=&quot;border-color: var(--border-color); font-size: 18px;&quot;&gt;&lt;span style=&quot;&quot;&gt;Receptionist&lt;/span&gt;&lt;/h1&gt;" style="whiteSpace=wrap;html=1;rounded=0;" parent="1" vertex="1">
          <mxGeometry x="41" y="642.5" width="120" height="60" as="geometry" />
        </mxCell>
        <mxCell id="j6KMdEsS2Ehn0cWHgv-K-63" value="" style="edgeStyle=orthogonalEdgeStyle;rounded=0;orthogonalLoop=1;jettySize=auto;html=1;" parent="1" source="j6KMdEsS2Ehn0cWHgv-K-60" target="j6KMdEsS2Ehn0cWHgv-K-62" edge="1">
          <mxGeometry relative="1" as="geometry" />
        </mxCell>
        <mxCell id="j6KMdEsS2Ehn0cWHgv-K-60" value="&lt;font style=&quot;font-size: 17px;&quot;&gt;works&lt;/font&gt;" style="rhombus;whiteSpace=wrap;html=1;rounded=0;" parent="1" vertex="1">
          <mxGeometry x="18" y="1078.5" width="80" height="80" as="geometry" />
        </mxCell>
        <mxCell id="j6KMdEsS2Ehn0cWHgv-K-62" value="&lt;h1 style=&quot;border-color: var(--border-color); font-size: 21px;&quot;&gt;&lt;span style=&quot;&quot;&gt;Crew&lt;/span&gt;&lt;/h1&gt;" style="whiteSpace=wrap;html=1;rounded=0;" parent="1" vertex="1">
          <mxGeometry x="180" y="1089" width="120" height="60" as="geometry" />
        </mxCell>
        <mxCell id="j6KMdEsS2Ehn0cWHgv-K-74" value="" style="edgeStyle=orthogonalEdgeStyle;rounded=0;orthogonalLoop=1;jettySize=auto;html=1;entryX=1;entryY=0.5;entryDx=0;entryDy=0;shape=link;" parent="1" source="j6KMdEsS2Ehn0cWHgv-K-73" target="D8szwjgX1KIRaP4R6oDy-1" edge="1">
          <mxGeometry relative="1" as="geometry">
            <mxPoint x="-299" y="351" as="targetPoint" />
          </mxGeometry>
        </mxCell>
        <mxCell id="j6KMdEsS2Ehn0cWHgv-K-77" value="" style="edgeStyle=orthogonalEdgeStyle;rounded=0;orthogonalLoop=1;jettySize=auto;html=1;entryX=1;entryY=0.5;entryDx=0;entryDy=0;exitX=0.197;exitY=1.015;exitDx=0;exitDy=0;exitPerimeter=0;" parent="1" source="j6KMdEsS2Ehn0cWHgv-K-73" target="j6KMdEsS2Ehn0cWHgv-K-81" edge="1">
          <mxGeometry relative="1" as="geometry">
            <mxPoint x="-245" y="521" as="targetPoint" />
            <Array as="points">
              <mxPoint x="-104" y="383" />
              <mxPoint x="-104" y="521" />
            </Array>
          </mxGeometry>
        </mxCell>
        <mxCell id="j6KMdEsS2Ehn0cWHgv-K-84" value="" style="edgeStyle=orthogonalEdgeStyle;rounded=0;orthogonalLoop=1;jettySize=auto;html=1;" parent="1" source="j6KMdEsS2Ehn0cWHgv-K-73" target="j6KMdEsS2Ehn0cWHgv-K-83" edge="1">
          <mxGeometry relative="1" as="geometry">
            <Array as="points">
              <mxPoint x="-78" y="673" />
            </Array>
          </mxGeometry>
        </mxCell>
        <mxCell id="j6KMdEsS2Ehn0cWHgv-K-92" value="" style="edgeStyle=orthogonalEdgeStyle;rounded=0;orthogonalLoop=1;jettySize=auto;html=1;exitX=0.5;exitY=0;exitDx=0;exitDy=0;" parent="1" source="j6KMdEsS2Ehn0cWHgv-K-73" target="j6KMdEsS2Ehn0cWHgv-K-91" edge="1">
          <mxGeometry relative="1" as="geometry" />
        </mxCell>
        <mxCell id="j6KMdEsS2Ehn0cWHgv-K-73" value="&lt;h1 style=&quot;border-color: var(--border-color);&quot;&gt;&lt;span style=&quot;font-size: 21px;&quot;&gt;Booking&lt;/span&gt;&lt;/h1&gt;" style="whiteSpace=wrap;html=1;rounded=0;" parent="1" vertex="1">
          <mxGeometry x="-120" y="322" width="120" height="60" as="geometry" />
        </mxCell>
        <mxCell id="j6KMdEsS2Ehn0cWHgv-K-81" value="&lt;font style=&quot;font-size: 20px;&quot;&gt;Has&lt;/font&gt;" style="rhombus;whiteSpace=wrap;html=1;rounded=0;" parent="1" vertex="1">
          <mxGeometry x="-247" y="481" width="80" height="80" as="geometry" />
        </mxCell>
        <mxCell id="j6KMdEsS2Ehn0cWHgv-K-86" value="" style="edgeStyle=orthogonalEdgeStyle;rounded=0;orthogonalLoop=1;jettySize=auto;html=1;" parent="1" source="j6KMdEsS2Ehn0cWHgv-K-83" target="j6KMdEsS2Ehn0cWHgv-K-85" edge="1">
          <mxGeometry relative="1" as="geometry" />
        </mxCell>
        <mxCell id="j6KMdEsS2Ehn0cWHgv-K-83" value="&lt;font style=&quot;font-size: 20px;&quot;&gt;Has&lt;/font&gt;" style="rhombus;whiteSpace=wrap;html=1;rounded=0;" parent="1" vertex="1">
          <mxGeometry x="-278.5" y="632.5" width="80" height="80" as="geometry" />
        </mxCell>
        <mxCell id="j6KMdEsS2Ehn0cWHgv-K-85" value="&lt;h1 style=&quot;border-color: var(--border-color);&quot;&gt;&lt;span style=&quot;font-size: 21px;&quot;&gt;Baggage&lt;/span&gt;&lt;/h1&gt;" style="whiteSpace=wrap;html=1;rounded=0;" parent="1" vertex="1">
          <mxGeometry x="-298.5" y="793.5" width="120" height="60" as="geometry" />
        </mxCell>
        <mxCell id="j6KMdEsS2Ehn0cWHgv-K-88" value="&lt;h1 style=&quot;border-color: var(--border-color);&quot;&gt;Ticket&lt;/h1&gt;" style="whiteSpace=wrap;html=1;rounded=0;" parent="1" vertex="1">
          <mxGeometry x="-472.5" y="494.75" width="109" height="52.5" as="geometry" />
        </mxCell>
        <mxCell id="j6KMdEsS2Ehn0cWHgv-K-90" value="&lt;font style=&quot;font-size: 17px;&quot;&gt;Has&lt;/font&gt;" style="rhombus;whiteSpace=wrap;html=1;direction=south;" parent="1" vertex="1">
          <mxGeometry x="-604" y="750" width="65" height="65" as="geometry" />
        </mxCell>
        <mxCell id="j6KMdEsS2Ehn0cWHgv-K-94" value="" style="edgeStyle=orthogonalEdgeStyle;rounded=0;orthogonalLoop=1;jettySize=auto;html=1;" parent="1" source="j6KMdEsS2Ehn0cWHgv-K-91" target="j6KMdEsS2Ehn0cWHgv-K-93" edge="1">
          <mxGeometry relative="1" as="geometry" />
        </mxCell>
        <mxCell id="j6KMdEsS2Ehn0cWHgv-K-91" value="&lt;font style=&quot;font-size: 16px;&quot;&gt;Receive&lt;/font&gt;" style="rhombus;whiteSpace=wrap;html=1;rounded=0;" parent="1" vertex="1">
          <mxGeometry x="-100" y="195" width="80" height="80" as="geometry" />
        </mxCell>
        <mxCell id="j6KMdEsS2Ehn0cWHgv-K-93" value="&lt;h1 style=&quot;border-color: var(--border-color);&quot;&gt;&lt;span style=&quot;font-size: 21px;&quot;&gt;Payment&lt;/span&gt;&lt;/h1&gt;" style="whiteSpace=wrap;html=1;rounded=0;" parent="1" vertex="1">
          <mxGeometry x="-120" y="57" width="120" height="60" as="geometry" />
        </mxCell>
        <mxCell id="j6KMdEsS2Ehn0cWHgv-K-95" value="" style="endArrow=none;html=1;rounded=0;exitX=1;exitY=0.5;exitDx=0;exitDy=0;shape=link;" parent="1" source="j6KMdEsS2Ehn0cWHgv-K-73" target="j6KMdEsS2Ehn0cWHgv-K-96" edge="1">
          <mxGeometry width="50" height="50" relative="1" as="geometry">
            <mxPoint x="104" y="453" as="sourcePoint" />
            <mxPoint x="65" y="352" as="targetPoint" />
          </mxGeometry>
        </mxCell>
        <mxCell id="j6KMdEsS2Ehn0cWHgv-K-97" value="" style="edgeStyle=orthogonalEdgeStyle;rounded=0;orthogonalLoop=1;jettySize=auto;html=1;" parent="1" source="j6KMdEsS2Ehn0cWHgv-K-96" target="j6KMdEsS2Ehn0cWHgv-K-6" edge="1">
          <mxGeometry relative="1" as="geometry" />
        </mxCell>
        <mxCell id="j6KMdEsS2Ehn0cWHgv-K-96" value="&lt;font style=&quot;font-size: 15px;&quot;&gt;Has Booking&lt;/font&gt;" style="rhombus;whiteSpace=wrap;html=1;" parent="1" vertex="1">
          <mxGeometry x="78" y="310" width="80" height="80" as="geometry" />
        </mxCell>
        <mxCell id="j6KMdEsS2Ehn0cWHgv-K-98" value="" style="endArrow=none;html=1;rounded=0;entryX=0.813;entryY=1.007;entryDx=0;entryDy=0;entryPerimeter=0;exitX=0.5;exitY=0;exitDx=0;exitDy=0;" parent="1" source="j6KMdEsS2Ehn0cWHgv-K-99" target="j6KMdEsS2Ehn0cWHgv-K-73" edge="1">
          <mxGeometry width="50" height="50" relative="1" as="geometry">
            <mxPoint x="26" y="442" as="sourcePoint" />
            <mxPoint x="76" y="442" as="targetPoint" />
          </mxGeometry>
        </mxCell>
        <mxCell id="j6KMdEsS2Ehn0cWHgv-K-99" value="&lt;font style=&quot;font-size: 14px;&quot;&gt;Scheduled&lt;/font&gt;" style="rhombus;whiteSpace=wrap;html=1;rotation=-20;" parent="1" vertex="1">
          <mxGeometry y="483.5" width="80" height="80" as="geometry" />
        </mxCell>
        <mxCell id="j6KMdEsS2Ehn0cWHgv-K-100" value="" style="endArrow=none;html=1;rounded=0;entryX=0.443;entryY=-0.001;entryDx=0;entryDy=0;entryPerimeter=0;exitX=0.5;exitY=1;exitDx=0;exitDy=0;" parent="1" source="j6KMdEsS2Ehn0cWHgv-K-99" target="j6KMdEsS2Ehn0cWHgv-K-58" edge="1">
          <mxGeometry width="50" height="50" relative="1" as="geometry">
            <mxPoint x="26" y="492" as="sourcePoint" />
            <mxPoint x="76" y="442" as="targetPoint" />
          </mxGeometry>
        </mxCell>
        <mxCell id="j6KMdEsS2Ehn0cWHgv-K-101" value="&lt;h1 style=&quot;border-color: var(--border-color);&quot;&gt;&lt;font style=&quot;border-color: var(--border-color); font-size: 21px;&quot;&gt;Airport&lt;/font&gt;&lt;/h1&gt;" style="whiteSpace=wrap;html=1;rounded=0;" parent="1" vertex="1">
          <mxGeometry x="643" y="577.75" width="120" height="60" as="geometry" />
        </mxCell>
        <mxCell id="j6KMdEsS2Ehn0cWHgv-K-102" value="" style="endArrow=none;html=1;rounded=0;entryX=1;entryY=1;entryDx=0;entryDy=0;exitX=0.462;exitY=0.043;exitDx=0;exitDy=0;shape=link;exitPerimeter=0;" parent="1" source="j6KMdEsS2Ehn0cWHgv-K-34" target="j6KMdEsS2Ehn0cWHgv-K-6" edge="1">
          <mxGeometry width="50" height="50" relative="1" as="geometry">
            <mxPoint x="572" y="492" as="sourcePoint" />
            <mxPoint x="622" y="442" as="targetPoint" />
          </mxGeometry>
        </mxCell>
        <mxCell id="j6KMdEsS2Ehn0cWHgv-K-103" value="" style="endArrow=none;html=1;rounded=0;entryX=0.5;entryY=1;entryDx=0;entryDy=0;" parent="1" source="j6KMdEsS2Ehn0cWHgv-K-101" target="j6KMdEsS2Ehn0cWHgv-K-34" edge="1">
          <mxGeometry width="50" height="50" relative="1" as="geometry">
            <mxPoint x="572" y="687" as="sourcePoint" />
            <mxPoint x="622" y="637" as="targetPoint" />
          </mxGeometry>
        </mxCell>
        <mxCell id="j6KMdEsS2Ehn0cWHgv-K-104" value="&lt;font style=&quot;font-size: 14px;&quot;&gt;Operates&lt;/font&gt;" style="rhombus;whiteSpace=wrap;html=1;rotation=-5;" parent="1" vertex="1">
          <mxGeometry x="763" y="130" width="80" height="80" as="geometry" />
        </mxCell>
        <mxCell id="j6KMdEsS2Ehn0cWHgv-K-105" value="" style="endArrow=none;html=1;rounded=0;entryX=0;entryY=0.5;entryDx=0;entryDy=0;exitX=1;exitY=0.5;exitDx=0;exitDy=0;" parent="1" source="j6KMdEsS2Ehn0cWHgv-K-8" target="j6KMdEsS2Ehn0cWHgv-K-104" edge="1">
          <mxGeometry width="50" height="50" relative="1" as="geometry">
            <mxPoint x="650" y="247" as="sourcePoint" />
            <mxPoint x="609" y="221" as="targetPoint" />
          </mxGeometry>
        </mxCell>
        <mxCell id="j6KMdEsS2Ehn0cWHgv-K-106" value="" style="endArrow=none;html=1;rounded=0;entryX=0;entryY=0.5;entryDx=0;entryDy=0;exitX=1;exitY=0.5;exitDx=0;exitDy=0;shape=link;" parent="1" source="j6KMdEsS2Ehn0cWHgv-K-104" target="j6KMdEsS2Ehn0cWHgv-K-21" edge="1">
          <mxGeometry width="50" height="50" relative="1" as="geometry">
            <mxPoint x="689" y="245" as="sourcePoint" />
            <mxPoint x="739" y="195" as="targetPoint" />
          </mxGeometry>
        </mxCell>
        <mxCell id="D8szwjgX1KIRaP4R6oDy-6" value="" style="edgeStyle=orthogonalEdgeStyle;rounded=0;orthogonalLoop=1;jettySize=auto;html=1;" parent="1" source="D8szwjgX1KIRaP4R6oDy-1" target="j6KMdEsS2Ehn0cWHgv-K-1" edge="1">
          <mxGeometry relative="1" as="geometry" />
        </mxCell>
        <mxCell id="D8szwjgX1KIRaP4R6oDy-1" value="&lt;font style=&quot;font-size: 19px;&quot;&gt;Book&lt;/font&gt;" style="rhombus;whiteSpace=wrap;html=1;" parent="1" vertex="1">
          <mxGeometry x="-378" y="312" width="80" height="80" as="geometry" />
        </mxCell>
        <mxCell id="D8szwjgX1KIRaP4R6oDy-50" style="edgeStyle=orthogonalEdgeStyle;rounded=0;orthogonalLoop=1;jettySize=auto;html=1;exitX=0.5;exitY=1;exitDx=0;exitDy=0;" parent="1" source="D8szwjgX1KIRaP4R6oDy-8" edge="1">
          <mxGeometry relative="1" as="geometry">
            <mxPoint x="-689" y="351" as="targetPoint" />
          </mxGeometry>
        </mxCell>
        <mxCell id="D8szwjgX1KIRaP4R6oDy-8" value="&lt;u style=&quot;font-size: 16px;&quot;&gt;&lt;font style=&quot;font-size: 16px;&quot;&gt;ClientID&lt;/font&gt;&lt;/u&gt;" style="ellipse;whiteSpace=wrap;html=1;rotation=0;fillColor=#f8cecc;strokeColor=#b85450;" parent="1" vertex="1">
          <mxGeometry x="-741" y="312" width="108.5" height="37" as="geometry" />
        </mxCell>
        <mxCell id="D8szwjgX1KIRaP4R6oDy-9" value="&#xa;&lt;b style=&quot;border-color: var(--border-color); color: rgb(0, 0, 0); font-family: Helvetica; font-size: 17px; font-style: normal; font-variant-ligatures: normal; font-variant-caps: normal; letter-spacing: normal; orphans: 2; text-align: center; text-indent: 0px; text-transform: none; widows: 2; word-spacing: 0px; -webkit-text-stroke-width: 0px; background-color: rgb(251, 251, 251); text-decoration-thickness: initial; text-decoration-style: initial; text-decoration-color: initial;&quot;&gt;1&lt;/b&gt;&#xa;&#xa;" style="text;html=1;align=center;verticalAlign=middle;resizable=0;points=[];autosize=1;strokeColor=none;fillColor=none;" parent="1" vertex="1">
          <mxGeometry x="-482.5" y="312" width="39" height="65" as="geometry" />
        </mxCell>
        <mxCell id="D8szwjgX1KIRaP4R6oDy-10" value="&lt;b style=&quot;border-color: var(--border-color); color: rgb(0, 0, 0); font-family: Helvetica; font-size: 17px; font-style: normal; font-variant-ligatures: normal; font-variant-caps: normal; letter-spacing: normal; orphans: 2; text-align: center; text-indent: 0px; text-transform: none; widows: 2; word-spacing: 0px; -webkit-text-stroke-width: 0px; background-color: rgb(251, 251, 251); text-decoration-thickness: initial; text-decoration-style: initial; text-decoration-color: initial;&quot;&gt;M&lt;/b&gt;" style="text;whiteSpace=wrap;html=1;" parent="1" vertex="1">
          <mxGeometry x="-149" y="322" width="26" height="39" as="geometry" />
        </mxCell>
        <mxCell id="D8szwjgX1KIRaP4R6oDy-11" value="&lt;b style=&quot;border-color: var(--border-color); color: rgb(0, 0, 0); font-family: Helvetica; font-size: 17px; font-style: normal; font-variant-ligatures: normal; font-variant-caps: normal; letter-spacing: normal; orphans: 2; text-align: center; text-indent: 0px; text-transform: none; widows: 2; word-spacing: 0px; -webkit-text-stroke-width: 0px; background-color: rgb(251, 251, 251); text-decoration-thickness: initial; text-decoration-style: initial; text-decoration-color: initial;&quot;&gt;M&lt;/b&gt;" style="text;whiteSpace=wrap;html=1;" parent="1" vertex="1">
          <mxGeometry x="-353.5" y="522" width="26" height="39" as="geometry" />
        </mxCell>
        <mxCell id="D8szwjgX1KIRaP4R6oDy-12" value="&#xa;&lt;b style=&quot;border-color: var(--border-color); color: rgb(0, 0, 0); font-family: Helvetica; font-size: 17px; font-style: normal; font-variant-ligatures: normal; font-variant-caps: normal; letter-spacing: normal; orphans: 2; text-align: center; text-indent: 0px; text-transform: none; widows: 2; word-spacing: 0px; -webkit-text-stroke-width: 0px; background-color: rgb(251, 251, 251); text-decoration-thickness: initial; text-decoration-style: initial; text-decoration-color: initial;&quot;&gt;1&lt;/b&gt;&#xa;&#xa;" style="text;html=1;align=center;verticalAlign=middle;resizable=0;points=[];autosize=1;strokeColor=none;fillColor=none;" parent="1" vertex="1">
          <mxGeometry x="-130" y="372" width="39" height="65" as="geometry" />
        </mxCell>
        <mxCell id="D8szwjgX1KIRaP4R6oDy-13" value="&#xa;&lt;b style=&quot;border-color: var(--border-color); color: rgb(0, 0, 0); font-family: Helvetica; font-size: 17px; font-style: normal; font-variant-ligatures: normal; font-variant-caps: normal; letter-spacing: normal; orphans: 2; text-align: center; text-indent: 0px; text-transform: none; widows: 2; word-spacing: 0px; -webkit-text-stroke-width: 0px; background-color: rgb(251, 251, 251); text-decoration-thickness: initial; text-decoration-style: initial; text-decoration-color: initial;&quot;&gt;1&lt;/b&gt;&#xa;&#xa;" style="text;html=1;align=center;verticalAlign=middle;resizable=0;points=[];autosize=1;strokeColor=none;fillColor=none;" parent="1" vertex="1">
          <mxGeometry x="-578" y="841" width="39" height="65" as="geometry" />
        </mxCell>
        <mxCell id="D8szwjgX1KIRaP4R6oDy-14" value="&lt;b style=&quot;border-color: var(--border-color); color: rgb(0, 0, 0); font-family: Helvetica; font-size: 17px; font-style: normal; font-variant-ligatures: normal; font-variant-caps: normal; letter-spacing: normal; orphans: 2; text-align: center; text-indent: 0px; text-transform: none; widows: 2; word-spacing: 0px; -webkit-text-stroke-width: 0px; background-color: rgb(251, 251, 251); text-decoration-thickness: initial; text-decoration-style: initial; text-decoration-color: initial;&quot;&gt;M&lt;/b&gt;" style="text;whiteSpace=wrap;html=1;" parent="1" vertex="1">
          <mxGeometry x="-443.5" y="551" width="26" height="39" as="geometry" />
        </mxCell>
        <mxCell id="D8szwjgX1KIRaP4R6oDy-15" value="&lt;b style=&quot;border-color: var(--border-color); color: rgb(0, 0, 0); font-family: Helvetica; font-size: 17px; font-style: normal; font-variant-ligatures: normal; font-variant-caps: normal; letter-spacing: normal; orphans: 2; text-align: center; text-indent: 0px; text-transform: none; widows: 2; word-spacing: 0px; -webkit-text-stroke-width: 0px; background-color: rgb(251, 251, 251); text-decoration-thickness: initial; text-decoration-style: initial; text-decoration-color: initial;&quot;&gt;1&lt;/b&gt;" style="text;whiteSpace=wrap;html=1;" parent="1" vertex="1">
          <mxGeometry x="-74" y="407" width="26" height="39" as="geometry" />
        </mxCell>
        <mxCell id="D8szwjgX1KIRaP4R6oDy-16" value="&lt;b style=&quot;border-color: var(--border-color); color: rgb(0, 0, 0); font-family: Helvetica; font-size: 17px; font-style: normal; font-variant-ligatures: normal; font-variant-caps: normal; letter-spacing: normal; orphans: 2; text-align: center; text-indent: 0px; text-transform: none; widows: 2; word-spacing: 0px; -webkit-text-stroke-width: 0px; background-color: rgb(251, 251, 251); text-decoration-thickness: initial; text-decoration-style: initial; text-decoration-color: initial;&quot;&gt;M&lt;/b&gt;" style="text;whiteSpace=wrap;html=1;" parent="1" vertex="1">
          <mxGeometry x="-272.5" y="751" width="26" height="39" as="geometry" />
        </mxCell>
        <mxCell id="D8szwjgX1KIRaP4R6oDy-18" value="&lt;b style=&quot;border-color: var(--border-color); font-size: 17px; text-align: center;&quot;&gt;1&lt;/b&gt;" style="text;whiteSpace=wrap;html=1;" parent="1" vertex="1">
          <mxGeometry x="-52" y="291" width="26" height="29" as="geometry" />
        </mxCell>
        <mxCell id="D8szwjgX1KIRaP4R6oDy-19" value="&lt;b style=&quot;border-color: var(--border-color); color: rgb(0, 0, 0); font-family: Helvetica; font-style: normal; font-variant-ligatures: normal; font-variant-caps: normal; letter-spacing: normal; orphans: 2; text-indent: 0px; text-transform: none; widows: 2; word-spacing: 0px; -webkit-text-stroke-width: 0px; text-decoration-thickness: initial; text-decoration-style: initial; text-decoration-color: initial; font-size: 17px; text-align: center; background-color: rgb(251, 251, 251);&quot;&gt;1&lt;/b&gt;" style="text;whiteSpace=wrap;html=1;" parent="1" vertex="1">
          <mxGeometry x="-52" y="117" width="13" height="26" as="geometry" />
        </mxCell>
        <mxCell id="D8szwjgX1KIRaP4R6oDy-21" value="&lt;b style=&quot;border-color: var(--border-color); color: rgb(0, 0, 0); font-family: Helvetica; font-style: normal; font-variant-ligatures: normal; font-variant-caps: normal; letter-spacing: normal; orphans: 2; text-indent: 0px; text-transform: none; widows: 2; word-spacing: 0px; -webkit-text-stroke-width: 0px; text-decoration-thickness: initial; text-decoration-style: initial; text-decoration-color: initial; font-size: 17px; text-align: center; background-color: rgb(251, 251, 251);&quot;&gt;1&lt;/b&gt;" style="text;whiteSpace=wrap;html=1;" parent="1" vertex="1">
          <mxGeometry x="94.5" y="615.5" width="13" height="26" as="geometry" />
        </mxCell>
        <mxCell id="D8szwjgX1KIRaP4R6oDy-22" value="&lt;b style=&quot;border-color: var(--border-color); color: rgb(0, 0, 0); font-family: Helvetica; font-size: 17px; font-style: normal; font-variant-ligatures: normal; font-variant-caps: normal; letter-spacing: normal; orphans: 2; text-align: center; text-indent: 0px; text-transform: none; widows: 2; word-spacing: 0px; -webkit-text-stroke-width: 0px; background-color: rgb(251, 251, 251); text-decoration-thickness: initial; text-decoration-style: initial; text-decoration-color: initial;&quot;&gt;M&lt;/b&gt;" style="text;whiteSpace=wrap;html=1;" parent="1" vertex="1">
          <mxGeometry y="322" width="26" height="39" as="geometry" />
        </mxCell>
        <mxCell id="D8szwjgX1KIRaP4R6oDy-23" value="&lt;b style=&quot;border-color: var(--border-color); color: rgb(0, 0, 0); font-family: Helvetica; font-size: 17px; font-style: normal; font-variant-ligatures: normal; font-variant-caps: normal; letter-spacing: normal; orphans: 2; text-align: center; text-indent: 0px; text-transform: none; widows: 2; word-spacing: 0px; -webkit-text-stroke-width: 0px; background-color: rgb(251, 251, 251); text-decoration-thickness: initial; text-decoration-style: initial; text-decoration-color: initial;&quot;&gt;1&lt;/b&gt;" style="text;whiteSpace=wrap;html=1;" parent="1" vertex="1">
          <mxGeometry x="249.75" y="320" width="23.25" height="26" as="geometry" />
        </mxCell>
        <mxCell id="D8szwjgX1KIRaP4R6oDy-24" value="&lt;b style=&quot;border-color: var(--border-color); color: rgb(0, 0, 0); font-family: Helvetica; font-size: 17px; font-style: normal; font-variant-ligatures: normal; font-variant-caps: normal; letter-spacing: normal; orphans: 2; text-align: center; text-indent: 0px; text-transform: none; widows: 2; word-spacing: 0px; -webkit-text-stroke-width: 0px; background-color: rgb(251, 251, 251); text-decoration-thickness: initial; text-decoration-style: initial; text-decoration-color: initial;&quot;&gt;M&lt;/b&gt;" style="text;whiteSpace=wrap;html=1;" parent="1" vertex="1">
          <mxGeometry x="-23" y="392" width="26" height="39" as="geometry" />
        </mxCell>
        <mxCell id="D8szwjgX1KIRaP4R6oDy-25" value="&lt;b style=&quot;border-color: var(--border-color); color: rgb(0, 0, 0); font-family: Helvetica; font-size: 17px; font-style: normal; font-variant-ligatures: normal; font-variant-caps: normal; letter-spacing: normal; orphans: 2; text-align: center; text-indent: 0px; text-transform: none; widows: 2; word-spacing: 0px; -webkit-text-stroke-width: 0px; background-color: rgb(251, 251, 251); text-decoration-thickness: initial; text-decoration-style: initial; text-decoration-color: initial;&quot;&gt;M&lt;/b&gt;" style="text;whiteSpace=wrap;html=1;" parent="1" vertex="1">
          <mxGeometry x="401" y="320" width="26" height="39" as="geometry" />
        </mxCell>
        <mxCell id="D8szwjgX1KIRaP4R6oDy-27" value="" style="edgeStyle=orthogonalEdgeStyle;rounded=0;orthogonalLoop=1;jettySize=auto;html=1;" parent="1" source="D8szwjgX1KIRaP4R6oDy-26" target="j6KMdEsS2Ehn0cWHgv-K-8" edge="1">
          <mxGeometry relative="1" as="geometry" />
        </mxCell>
        <mxCell id="D8szwjgX1KIRaP4R6oDy-26" value="&lt;font style=&quot;font-size: 18px;&quot;&gt;Uses&lt;/font&gt;" style="rhombus;whiteSpace=wrap;html=1;" parent="1" vertex="1">
          <mxGeometry x="553" y="310" width="80" height="80" as="geometry" />
        </mxCell>
        <mxCell id="D8szwjgX1KIRaP4R6oDy-28" value="&lt;b style=&quot;border-color: var(--border-color); color: rgb(0, 0, 0); font-family: Helvetica; font-size: 17px; font-style: normal; font-variant-ligatures: normal; font-variant-caps: normal; letter-spacing: normal; orphans: 2; text-align: center; text-indent: 0px; text-transform: none; widows: 2; word-spacing: 0px; -webkit-text-stroke-width: 0px; background-color: rgb(251, 251, 251); text-decoration-thickness: initial; text-decoration-style: initial; text-decoration-color: initial;&quot;&gt;M&lt;/b&gt;" style="text;whiteSpace=wrap;html=1;" parent="1" vertex="1">
          <mxGeometry x="633" y="222" width="23.25" height="26" as="geometry" />
        </mxCell>
        <mxCell id="D8szwjgX1KIRaP4R6oDy-29" value="&lt;b style=&quot;border-color: var(--border-color); font-size: 17px; text-align: center;&quot;&gt;1&lt;/b&gt;" style="text;whiteSpace=wrap;html=1;" parent="1" vertex="1">
          <mxGeometry x="572" y="219" width="26" height="29" as="geometry" />
        </mxCell>
        <mxCell id="D8szwjgX1KIRaP4R6oDy-32" value="&lt;b style=&quot;border-color: var(--border-color); font-size: 17px; text-align: center;&quot;&gt;1&lt;/b&gt;" style="text;whiteSpace=wrap;html=1;" parent="1" vertex="1">
          <mxGeometry x="656.25" y="156" width="26" height="29" as="geometry" />
        </mxCell>
        <mxCell id="D8szwjgX1KIRaP4R6oDy-33" value="&lt;b style=&quot;border-color: var(--border-color); color: rgb(0, 0, 0); font-family: Helvetica; font-size: 17px; font-style: normal; font-variant-ligatures: normal; font-variant-caps: normal; letter-spacing: normal; orphans: 2; text-align: center; text-indent: 0px; text-transform: none; widows: 2; word-spacing: 0px; -webkit-text-stroke-width: 0px; background-color: rgb(251, 251, 251); text-decoration-thickness: initial; text-decoration-style: initial; text-decoration-color: initial;&quot;&gt;M&lt;/b&gt;" style="text;whiteSpace=wrap;html=1;" parent="1" vertex="1">
          <mxGeometry x="910" y="130" width="26" height="39" as="geometry" />
        </mxCell>
        <mxCell id="D8szwjgX1KIRaP4R6oDy-34" value="&lt;b style=&quot;border-color: var(--border-color); font-size: 17px; text-align: center;&quot;&gt;1&lt;/b&gt;" style="text;whiteSpace=wrap;html=1;" parent="1" vertex="1">
          <mxGeometry x="949" y="705.5" width="26" height="29" as="geometry" />
        </mxCell>
        <mxCell id="D8szwjgX1KIRaP4R6oDy-35" value="&lt;b style=&quot;border-color: var(--border-color); font-size: 17px; text-align: center;&quot;&gt;1&lt;/b&gt;" style="text;whiteSpace=wrap;html=1;" parent="1" vertex="1">
          <mxGeometry x="706.5" y="547.25" width="26" height="29" as="geometry" />
        </mxCell>
        <mxCell id="D8szwjgX1KIRaP4R6oDy-36" value="&lt;b style=&quot;border-color: var(--border-color); color: rgb(0, 0, 0); font-family: Helvetica; font-size: 17px; font-style: normal; font-variant-ligatures: normal; font-variant-caps: normal; letter-spacing: normal; orphans: 2; text-align: center; text-indent: 0px; text-transform: none; widows: 2; word-spacing: 0px; -webkit-text-stroke-width: 0px; background-color: rgb(251, 251, 251); text-decoration-thickness: initial; text-decoration-style: initial; text-decoration-color: initial;&quot;&gt;M&lt;/b&gt;" style="text;whiteSpace=wrap;html=1;" parent="1" vertex="1">
          <mxGeometry x="442" y="372" width="26" height="39" as="geometry" />
        </mxCell>
        <mxCell id="D8szwjgX1KIRaP4R6oDy-37" value="&lt;b style=&quot;border-color: var(--border-color); color: rgb(0, 0, 0); font-family: Helvetica; font-size: 17px; font-style: normal; font-variant-ligatures: normal; font-variant-caps: normal; letter-spacing: normal; orphans: 2; text-align: center; text-indent: 0px; text-transform: none; widows: 2; word-spacing: 0px; -webkit-text-stroke-width: 0px; background-color: rgb(251, 251, 251); text-decoration-thickness: initial; text-decoration-style: initial; text-decoration-color: initial;&quot;&gt;M&lt;/b&gt;" style="text;whiteSpace=wrap;html=1;" parent="1" vertex="1">
          <mxGeometry x="341" y="380" width="26" height="39" as="geometry" />
        </mxCell>
        <mxCell id="D8szwjgX1KIRaP4R6oDy-38" value="&lt;b style=&quot;border-color: var(--border-color); font-size: 17px; text-align: center;&quot;&gt;1&lt;/b&gt;" style="text;whiteSpace=wrap;html=1;" parent="1" vertex="1">
          <mxGeometry x="580.25" y="825" width="26" height="29" as="geometry" />
        </mxCell>
        <mxCell id="D8szwjgX1KIRaP4R6oDy-39" value="&lt;b style=&quot;border-color: var(--border-color); font-size: 17px; text-align: center;&quot;&gt;1&lt;/b&gt;" style="text;whiteSpace=wrap;html=1;" parent="1" vertex="1">
          <mxGeometry x="288" y="382" width="26" height="29" as="geometry" />
        </mxCell>
        <mxCell id="D8szwjgX1KIRaP4R6oDy-40" value="&lt;b style=&quot;border-color: var(--border-color); color: rgb(0, 0, 0); font-family: Helvetica; font-size: 17px; font-style: normal; font-variant-ligatures: normal; font-variant-caps: normal; letter-spacing: normal; orphans: 2; text-align: center; text-indent: 0px; text-transform: none; widows: 2; word-spacing: 0px; -webkit-text-stroke-width: 0px; background-color: rgb(251, 251, 251); text-decoration-thickness: initial; text-decoration-style: initial; text-decoration-color: initial;&quot;&gt;M&lt;/b&gt;" style="text;whiteSpace=wrap;html=1;" parent="1" vertex="1">
          <mxGeometry x="273" y="648.5" width="26" height="39" as="geometry" />
        </mxCell>
        <mxCell id="D8szwjgX1KIRaP4R6oDy-41" value="&lt;b style=&quot;border-color: var(--border-color); color: rgb(0, 0, 0); font-family: Helvetica; font-style: normal; font-variant-ligatures: normal; font-variant-caps: normal; letter-spacing: normal; orphans: 2; text-indent: 0px; text-transform: none; widows: 2; word-spacing: 0px; -webkit-text-stroke-width: 0px; text-decoration-thickness: initial; text-decoration-style: initial; text-decoration-color: initial; font-size: 17px; text-align: center; background-color: rgb(251, 251, 251);&quot;&gt;1&lt;/b&gt;" style="text;whiteSpace=wrap;html=1;" parent="1" vertex="1">
          <mxGeometry x="106" y="705.5" width="13" height="26" as="geometry" />
        </mxCell>
        <mxCell id="D8szwjgX1KIRaP4R6oDy-42" value="&lt;b style=&quot;border-color: var(--border-color); color: rgb(0, 0, 0); font-family: Helvetica; font-style: normal; font-variant-ligatures: normal; font-variant-caps: normal; letter-spacing: normal; orphans: 2; text-indent: 0px; text-transform: none; widows: 2; word-spacing: 0px; -webkit-text-stroke-width: 0px; text-decoration-thickness: initial; text-decoration-style: initial; text-decoration-color: initial; font-size: 17px; text-align: center; background-color: rgb(251, 251, 251);&quot;&gt;1&lt;/b&gt;" style="text;whiteSpace=wrap;html=1;" parent="1" vertex="1">
          <mxGeometry x="-67.5" y="1018.5" width="13" height="26" as="geometry" />
        </mxCell>
        <mxCell id="D8szwjgX1KIRaP4R6oDy-43" value="&lt;b style=&quot;border-color: var(--border-color); color: rgb(0, 0, 0); font-family: Helvetica; font-style: normal; font-variant-ligatures: normal; font-variant-caps: normal; letter-spacing: normal; orphans: 2; text-indent: 0px; text-transform: none; widows: 2; word-spacing: 0px; -webkit-text-stroke-width: 0px; text-decoration-thickness: initial; text-decoration-style: initial; text-decoration-color: initial; font-size: 17px; text-align: center; background-color: rgb(251, 251, 251);&quot;&gt;1&lt;/b&gt;" style="text;whiteSpace=wrap;html=1;" parent="1" vertex="1">
          <mxGeometry x="-54.5" y="1071" width="13" height="26" as="geometry" />
        </mxCell>
        <mxCell id="D8szwjgX1KIRaP4R6oDy-44" value="&lt;b style=&quot;border-color: var(--border-color); color: rgb(0, 0, 0); font-family: Helvetica; font-style: normal; font-variant-ligatures: normal; font-variant-caps: normal; letter-spacing: normal; orphans: 2; text-indent: 0px; text-transform: none; widows: 2; word-spacing: 0px; -webkit-text-stroke-width: 0px; text-decoration-thickness: initial; text-decoration-style: initial; text-decoration-color: initial; font-size: 17px; text-align: center; background-color: rgb(251, 251, 251);&quot;&gt;1&lt;/b&gt;" style="text;whiteSpace=wrap;html=1;" parent="1" vertex="1">
          <mxGeometry x="167" y="1089" width="13" height="26" as="geometry" />
        </mxCell>
        <mxCell id="D8szwjgX1KIRaP4R6oDy-45" value="&lt;span style=&quot;font-size: 16px;&quot;&gt;First_name&lt;/span&gt;" style="ellipse;whiteSpace=wrap;html=1;rotation=0;" parent="1" vertex="1">
          <mxGeometry x="-728" y="259" width="108.5" height="37" as="geometry" />
        </mxCell>
        <mxCell id="D8szwjgX1KIRaP4R6oDy-47" value="&lt;span style=&quot;font-size: 16px;&quot;&gt;Last_name&lt;/span&gt;" style="ellipse;whiteSpace=wrap;html=1;rotation=0;" parent="1" vertex="1">
          <mxGeometry x="-615.5" y="238" width="108.5" height="37" as="geometry" />
        </mxCell>
        <mxCell id="D8szwjgX1KIRaP4R6oDy-48" value="&lt;span style=&quot;font-size: 16px;&quot;&gt;Tel_no&lt;/span&gt;" style="ellipse;whiteSpace=wrap;html=1;rotation=0;" parent="1" vertex="1">
          <mxGeometry x="-494" y="238" width="108.5" height="37" as="geometry" />
        </mxCell>
        <mxCell id="D8szwjgX1KIRaP4R6oDy-49" value="&lt;span style=&quot;font-size: 16px;&quot;&gt;Card_number&lt;/span&gt;" style="ellipse;whiteSpace=wrap;html=1;rotation=0;" parent="1" vertex="1">
          <mxGeometry x="-728" y="372" width="104" height="35" as="geometry" />
        </mxCell>
        <mxCell id="D8szwjgX1KIRaP4R6oDy-51" value="" style="endArrow=none;html=1;rounded=0;entryX=0.417;entryY=0.982;entryDx=0;entryDy=0;entryPerimeter=0;" parent="1" source="j6KMdEsS2Ehn0cWHgv-K-1" target="D8szwjgX1KIRaP4R6oDy-48" edge="1">
          <mxGeometry width="50" height="50" relative="1" as="geometry">
            <mxPoint x="-403" y="388" as="sourcePoint" />
            <mxPoint x="-353" y="338" as="targetPoint" />
          </mxGeometry>
        </mxCell>
        <mxCell id="D8szwjgX1KIRaP4R6oDy-52" value="" style="endArrow=none;html=1;rounded=0;entryX=0.5;entryY=1;entryDx=0;entryDy=0;exitX=0.564;exitY=0.015;exitDx=0;exitDy=0;exitPerimeter=0;" parent="1" source="j6KMdEsS2Ehn0cWHgv-K-1" target="D8szwjgX1KIRaP4R6oDy-47" edge="1">
          <mxGeometry width="50" height="50" relative="1" as="geometry">
            <mxPoint x="-489" y="335" as="sourcePoint" />
            <mxPoint x="-436" y="291" as="targetPoint" />
          </mxGeometry>
        </mxCell>
        <mxCell id="D8szwjgX1KIRaP4R6oDy-53" value="" style="endArrow=none;html=1;rounded=0;entryX=1;entryY=1;entryDx=0;entryDy=0;exitX=0.25;exitY=0;exitDx=0;exitDy=0;" parent="1" source="j6KMdEsS2Ehn0cWHgv-K-1" target="D8szwjgX1KIRaP4R6oDy-45" edge="1">
          <mxGeometry width="50" height="50" relative="1" as="geometry">
            <mxPoint x="-476" y="348" as="sourcePoint" />
            <mxPoint x="-423" y="304" as="targetPoint" />
          </mxGeometry>
        </mxCell>
        <mxCell id="D8szwjgX1KIRaP4R6oDy-54" value="" style="endArrow=none;html=1;rounded=0;exitX=0;exitY=0.5;exitDx=0;exitDy=0;entryX=0.972;entryY=0.681;entryDx=0;entryDy=0;entryPerimeter=0;" parent="1" source="j6KMdEsS2Ehn0cWHgv-K-1" target="D8szwjgX1KIRaP4R6oDy-8" edge="1">
          <mxGeometry width="50" height="50" relative="1" as="geometry">
            <mxPoint x="-403" y="388" as="sourcePoint" />
            <mxPoint x="-353" y="338" as="targetPoint" />
          </mxGeometry>
        </mxCell>
        <mxCell id="D8szwjgX1KIRaP4R6oDy-55" value="" style="endArrow=none;html=1;rounded=0;exitX=0.975;exitY=0.367;exitDx=0;exitDy=0;exitPerimeter=0;entryX=-0.002;entryY=0.888;entryDx=0;entryDy=0;entryPerimeter=0;" parent="1" source="D8szwjgX1KIRaP4R6oDy-49" target="j6KMdEsS2Ehn0cWHgv-K-1" edge="1">
          <mxGeometry width="50" height="50" relative="1" as="geometry">
            <mxPoint x="-494" y="362" as="sourcePoint" />
            <mxPoint x="-444" y="312" as="targetPoint" />
          </mxGeometry>
        </mxCell>
        <mxCell id="D8szwjgX1KIRaP4R6oDy-56" value="&lt;span style=&quot;font-size: 16px;&quot;&gt;First_name&lt;/span&gt;" style="ellipse;whiteSpace=wrap;html=1;rotation=0;" parent="1" vertex="1">
          <mxGeometry x="-790.5" y="921" width="108.5" height="37" as="geometry" />
        </mxCell>
        <mxCell id="D8szwjgX1KIRaP4R6oDy-58" value="&lt;span style=&quot;font-size: 16px;&quot;&gt;Last_name&lt;/span&gt;" style="ellipse;whiteSpace=wrap;html=1;rotation=0;" parent="1" vertex="1">
          <mxGeometry x="-744.5" y="979.5" width="108.5" height="37" as="geometry" />
        </mxCell>
        <mxCell id="D8szwjgX1KIRaP4R6oDy-59" value="&lt;span style=&quot;font-size: 16px;&quot;&gt;&lt;u&gt;Passport_No&lt;/u&gt;&lt;/span&gt;" style="ellipse;whiteSpace=wrap;html=1;rotation=0;fillColor=#f8cecc;strokeColor=#b85450;" parent="1" vertex="1">
          <mxGeometry x="-631.5" y="1001" width="108.5" height="37" as="geometry" />
        </mxCell>
        <mxCell id="D8szwjgX1KIRaP4R6oDy-61" value="" style="endArrow=none;html=1;rounded=0;exitX=1;exitY=0.5;exitDx=0;exitDy=0;entryX=0;entryY=0.75;entryDx=0;entryDy=0;" parent="1" source="D8szwjgX1KIRaP4R6oDy-56" target="j6KMdEsS2Ehn0cWHgv-K-16" edge="1">
          <mxGeometry width="50" height="50" relative="1" as="geometry">
            <mxPoint x="-543.5" y="956" as="sourcePoint" />
            <mxPoint x="-493.5" y="906" as="targetPoint" />
          </mxGeometry>
        </mxCell>
        <mxCell id="D8szwjgX1KIRaP4R6oDy-62" value="" style="endArrow=none;html=1;rounded=0;exitX=0.656;exitY=0.025;exitDx=0;exitDy=0;exitPerimeter=0;" parent="1" source="D8szwjgX1KIRaP4R6oDy-58" target="j6KMdEsS2Ehn0cWHgv-K-16" edge="1">
          <mxGeometry width="50" height="50" relative="1" as="geometry">
            <mxPoint x="-668.5" y="953" as="sourcePoint" />
            <mxPoint x="-622.5" y="938" as="targetPoint" />
          </mxGeometry>
        </mxCell>
        <mxCell id="D8szwjgX1KIRaP4R6oDy-63" value="" style="endArrow=none;html=1;rounded=0;exitX=0.5;exitY=0;exitDx=0;exitDy=0;entryX=0.5;entryY=1;entryDx=0;entryDy=0;" parent="1" source="D8szwjgX1KIRaP4R6oDy-59" target="j6KMdEsS2Ehn0cWHgv-K-16" edge="1">
          <mxGeometry width="50" height="50" relative="1" as="geometry">
            <mxPoint x="-655.5" y="966" as="sourcePoint" />
            <mxPoint x="-609.5" y="951" as="targetPoint" />
          </mxGeometry>
        </mxCell>
        <mxCell id="D8szwjgX1KIRaP4R6oDy-66" value="&lt;span style=&quot;font-size: 16px;&quot;&gt;&lt;u&gt;Ticket_No&lt;/u&gt;&lt;/span&gt;" style="ellipse;whiteSpace=wrap;html=1;rotation=0;fillColor=#f8cecc;strokeColor=#b85450;" parent="1" vertex="1">
          <mxGeometry x="-719.5" y="578.5" width="108.5" height="37" as="geometry" />
        </mxCell>
        <mxCell id="D8szwjgX1KIRaP4R6oDy-67" value="&lt;span style=&quot;font-size: 16px;&quot;&gt;&lt;i&gt;PNR&lt;/i&gt;&lt;/span&gt;" style="ellipse;whiteSpace=wrap;html=1;rotation=0;fillColor=#d5e8d4;strokeColor=#82b366;" parent="1" vertex="1">
          <mxGeometry x="-723.5" y="536" width="104" height="35" as="geometry" />
        </mxCell>
        <mxCell id="D8szwjgX1KIRaP4R6oDy-68" value="&lt;font style=&quot;font-size: 16px;&quot;&gt;Destination&lt;/font&gt;" style="ellipse;whiteSpace=wrap;html=1;rotation=0;" parent="1" vertex="1">
          <mxGeometry x="-708" y="501" width="104" height="35" as="geometry" />
        </mxCell>
        <mxCell id="D8szwjgX1KIRaP4R6oDy-69" value="&lt;font style=&quot;font-size: 16px;&quot;&gt;Location&lt;/font&gt;" style="ellipse;whiteSpace=wrap;html=1;rotation=0;" parent="1" vertex="1">
          <mxGeometry x="-651.5" y="466" width="104" height="35" as="geometry" />
        </mxCell>
        <mxCell id="D8szwjgX1KIRaP4R6oDy-70" value="&lt;font style=&quot;font-size: 13px;&quot;&gt;Departure_Time&lt;/font&gt;" style="ellipse;whiteSpace=wrap;html=1;rotation=0;" parent="1" vertex="1">
          <mxGeometry x="-604" y="431" width="104" height="35" as="geometry" />
        </mxCell>
        <mxCell id="D8szwjgX1KIRaP4R6oDy-71" value="&lt;font style=&quot;font-size: 16px;&quot;&gt;Seat&lt;/font&gt;" style="ellipse;whiteSpace=wrap;html=1;rotation=0;fillColor=#d5e8d4;strokeColor=#82b366;" parent="1" vertex="1">
          <mxGeometry x="-547.5" y="402" width="104" height="35" as="geometry" />
        </mxCell>
        <mxCell id="D8szwjgX1KIRaP4R6oDy-72" value="&lt;font style=&quot;font-size: 16px;&quot;&gt;Carrier&lt;/font&gt;" style="ellipse;whiteSpace=wrap;html=1;rotation=0;" parent="1" vertex="1">
          <mxGeometry x="-470" y="431" width="104" height="35" as="geometry" />
        </mxCell>
        <mxCell id="D8szwjgX1KIRaP4R6oDy-73" value="" style="endArrow=none;html=1;rounded=0;exitX=0.588;exitY=0.034;exitDx=0;exitDy=0;exitPerimeter=0;entryX=0.175;entryY=0.995;entryDx=0;entryDy=0;entryPerimeter=0;" parent="1" source="D8szwjgX1KIRaP4R6oDy-66" target="j6KMdEsS2Ehn0cWHgv-K-29" edge="1">
          <mxGeometry width="50" height="50" relative="1" as="geometry">
            <mxPoint x="-390" y="570" as="sourcePoint" />
            <mxPoint x="-340" y="520" as="targetPoint" />
          </mxGeometry>
        </mxCell>
        <mxCell id="D8szwjgX1KIRaP4R6oDy-74" value="" style="endArrow=none;html=1;rounded=0;exitX=1;exitY=0.5;exitDx=0;exitDy=0;entryX=0;entryY=0.75;entryDx=0;entryDy=0;" parent="1" source="D8szwjgX1KIRaP4R6oDy-67" target="j6KMdEsS2Ehn0cWHgv-K-88" edge="1">
          <mxGeometry width="50" height="50" relative="1" as="geometry">
            <mxPoint x="-521" y="637" as="sourcePoint" />
            <mxPoint x="-439" y="562" as="targetPoint" />
          </mxGeometry>
        </mxCell>
        <mxCell id="D8szwjgX1KIRaP4R6oDy-75" value="" style="endArrow=none;html=1;rounded=0;exitX=1;exitY=0.5;exitDx=0;exitDy=0;entryX=0;entryY=0.25;entryDx=0;entryDy=0;" parent="1" source="D8szwjgX1KIRaP4R6oDy-68" target="j6KMdEsS2Ehn0cWHgv-K-29" edge="1">
          <mxGeometry width="50" height="50" relative="1" as="geometry">
            <mxPoint x="-508" y="650" as="sourcePoint" />
            <mxPoint x="-426" y="575" as="targetPoint" />
          </mxGeometry>
        </mxCell>
        <mxCell id="D8szwjgX1KIRaP4R6oDy-76" value="" style="endArrow=none;html=1;rounded=0;exitX=1;exitY=0.5;exitDx=0;exitDy=0;entryX=0.008;entryY=0.056;entryDx=0;entryDy=0;entryPerimeter=0;" parent="1" source="D8szwjgX1KIRaP4R6oDy-69" target="j6KMdEsS2Ehn0cWHgv-K-29" edge="1">
          <mxGeometry width="50" height="50" relative="1" as="geometry">
            <mxPoint x="-533" y="567" as="sourcePoint" />
            <mxPoint x="-481" y="494" as="targetPoint" />
          </mxGeometry>
        </mxCell>
        <mxCell id="D8szwjgX1KIRaP4R6oDy-77" value="" style="endArrow=none;html=1;rounded=0;entryX=0.5;entryY=1;entryDx=0;entryDy=0;exitX=0.698;exitY=-0.005;exitDx=0;exitDy=0;exitPerimeter=0;" parent="1" source="j6KMdEsS2Ehn0cWHgv-K-29" target="D8szwjgX1KIRaP4R6oDy-72" edge="1">
          <mxGeometry width="50" height="50" relative="1" as="geometry">
            <mxPoint x="-390" y="494" as="sourcePoint" />
            <mxPoint x="-340" y="520" as="targetPoint" />
          </mxGeometry>
        </mxCell>
        <mxCell id="D8szwjgX1KIRaP4R6oDy-78" value="" style="endArrow=none;html=1;rounded=0;exitX=0.198;exitY=-0.012;exitDx=0;exitDy=0;exitPerimeter=0;" parent="1" source="j6KMdEsS2Ehn0cWHgv-K-29" target="D8szwjgX1KIRaP4R6oDy-71" edge="1">
          <mxGeometry width="50" height="50" relative="1" as="geometry">
            <mxPoint x="-455" y="494" as="sourcePoint" />
            <mxPoint x="-340" y="520" as="targetPoint" />
          </mxGeometry>
        </mxCell>
        <mxCell id="D8szwjgX1KIRaP4R6oDy-79" value="" style="endArrow=none;html=1;rounded=0;entryX=0.925;entryY=0.838;entryDx=0;entryDy=0;entryPerimeter=0;exitX=0.076;exitY=-0.054;exitDx=0;exitDy=0;exitPerimeter=0;" parent="1" source="j6KMdEsS2Ehn0cWHgv-K-88" target="D8szwjgX1KIRaP4R6oDy-70" edge="1">
          <mxGeometry width="50" height="50" relative="1" as="geometry">
            <mxPoint x="-468" y="494" as="sourcePoint" />
            <mxPoint x="-340" y="520" as="targetPoint" />
          </mxGeometry>
        </mxCell>
        <mxCell id="D8szwjgX1KIRaP4R6oDy-80" value="&lt;span style=&quot;font-size: 16px;&quot;&gt;&lt;i&gt;Passport_no&lt;/i&gt;&lt;/span&gt;" style="ellipse;whiteSpace=wrap;html=1;rotation=0;fillColor=#d5e8d4;strokeColor=#82b366;" parent="1" vertex="1">
          <mxGeometry x="-364.5" y="431" width="104" height="35" as="geometry" />
        </mxCell>
        <mxCell id="D8szwjgX1KIRaP4R6oDy-81" value="" style="endArrow=none;html=1;rounded=0;exitX=0.789;exitY=-0.005;exitDx=0;exitDy=0;exitPerimeter=0;" parent="1" source="j6KMdEsS2Ehn0cWHgv-K-29" target="D8szwjgX1KIRaP4R6oDy-80" edge="1">
          <mxGeometry width="50" height="50" relative="1" as="geometry">
            <mxPoint x="-390" y="494" as="sourcePoint" />
            <mxPoint x="-455" y="459" as="targetPoint" />
          </mxGeometry>
        </mxCell>
        <mxCell id="D8szwjgX1KIRaP4R6oDy-82" value="&lt;span style=&quot;font-size: 16px;&quot;&gt;&lt;i&gt;PNR&lt;/i&gt;&lt;/span&gt;" style="ellipse;whiteSpace=wrap;html=1;rotation=0;fillColor=#d5e8d4;strokeColor=#82b366;" parent="1" vertex="1">
          <mxGeometry x="-275.5" y="24" width="108.5" height="37" as="geometry" />
        </mxCell>
        <mxCell id="D8szwjgX1KIRaP4R6oDy-83" value="" style="endArrow=none;html=1;rounded=0;exitX=0;exitY=0.25;exitDx=0;exitDy=0;" parent="1" source="j6KMdEsS2Ehn0cWHgv-K-93" target="D8szwjgX1KIRaP4R6oDy-82" edge="1">
          <mxGeometry width="50" height="50" relative="1" as="geometry">
            <mxPoint x="-110" y="59" as="sourcePoint" />
            <mxPoint x="-195" y="39" as="targetPoint" />
          </mxGeometry>
        </mxCell>
        <mxCell id="D8szwjgX1KIRaP4R6oDy-84" value="&lt;u style=&quot;font-size: 16px;&quot;&gt;&lt;font style=&quot;font-size: 16px;&quot;&gt;PaymentID&lt;/font&gt;&lt;/u&gt;" style="ellipse;whiteSpace=wrap;html=1;rotation=0;fillColor=#f8cecc;strokeColor=#b85450;" parent="1" vertex="1">
          <mxGeometry x="-190.25" y="-13" width="108.5" height="37" as="geometry" />
        </mxCell>
        <mxCell id="D8szwjgX1KIRaP4R6oDy-85" value="&lt;span style=&quot;font-size: 16px;&quot;&gt;Payment_Type&lt;/span&gt;" style="ellipse;whiteSpace=wrap;html=1;rotation=0;" parent="1" vertex="1">
          <mxGeometry x="-81.75" y="-24" width="108.5" height="37" as="geometry" />
        </mxCell>
        <mxCell id="D8szwjgX1KIRaP4R6oDy-86" value="&lt;span style=&quot;font-size: 16px;&quot;&gt;Card_number&lt;/span&gt;" style="ellipse;whiteSpace=wrap;html=1;rotation=0;" parent="1" vertex="1">
          <mxGeometry x="10.5" y="13" width="108.5" height="37" as="geometry" />
        </mxCell>
        <mxCell id="D8szwjgX1KIRaP4R6oDy-87" value="" style="endArrow=none;html=1;rounded=0;exitX=0.416;exitY=-0.013;exitDx=0;exitDy=0;entryX=0.665;entryY=0.964;entryDx=0;entryDy=0;entryPerimeter=0;exitPerimeter=0;" parent="1" source="j6KMdEsS2Ehn0cWHgv-K-93" target="D8szwjgX1KIRaP4R6oDy-84" edge="1">
          <mxGeometry width="50" height="50" relative="1" as="geometry">
            <mxPoint x="-107" y="85" as="sourcePoint" />
            <mxPoint x="-167" y="67" as="targetPoint" />
          </mxGeometry>
        </mxCell>
        <mxCell id="D8szwjgX1KIRaP4R6oDy-88" value="" style="endArrow=none;html=1;rounded=0;exitX=0.556;exitY=-0.001;exitDx=0;exitDy=0;exitPerimeter=0;entryX=0.403;entryY=0.994;entryDx=0;entryDy=0;entryPerimeter=0;" parent="1" source="j6KMdEsS2Ehn0cWHgv-K-93" target="D8szwjgX1KIRaP4R6oDy-85" edge="1">
          <mxGeometry width="50" height="50" relative="1" as="geometry">
            <mxPoint x="-57" y="69" as="sourcePoint" />
            <mxPoint x="-46" y="17" as="targetPoint" />
          </mxGeometry>
        </mxCell>
        <mxCell id="D8szwjgX1KIRaP4R6oDy-89" value="" style="endArrow=none;html=1;rounded=0;entryX=0;entryY=1;entryDx=0;entryDy=0;" parent="1" source="j6KMdEsS2Ehn0cWHgv-K-93" target="D8szwjgX1KIRaP4R6oDy-86" edge="1">
          <mxGeometry width="50" height="50" relative="1" as="geometry">
            <mxPoint x="-44" y="82" as="sourcePoint" />
            <mxPoint x="-92" y="49" as="targetPoint" />
          </mxGeometry>
        </mxCell>
        <mxCell id="D8szwjgX1KIRaP4R6oDy-90" value="&lt;span style=&quot;font-size: 14px;&quot;&gt;Departure_Time&lt;/span&gt;" style="ellipse;whiteSpace=wrap;html=1;rotation=0;" parent="1" vertex="1">
          <mxGeometry x="819" y="80" width="108.5" height="37" as="geometry" />
        </mxCell>
        <mxCell id="D8szwjgX1KIRaP4R6oDy-91" value="&lt;span style=&quot;font-size: 14px;&quot;&gt;Departure_Date&lt;br&gt;&lt;/span&gt;" style="ellipse;whiteSpace=wrap;html=1;rotation=0;" parent="1" vertex="1">
          <mxGeometry x="888.5" y="50" width="108.5" height="37" as="geometry" />
        </mxCell>
        <mxCell id="D8szwjgX1KIRaP4R6oDy-92" value="&lt;span style=&quot;font-size: 14px;&quot;&gt;Arrival_Time&lt;/span&gt;" style="ellipse;whiteSpace=wrap;html=1;rotation=0;" parent="1" vertex="1">
          <mxGeometry x="997" y="43" width="108.5" height="37" as="geometry" />
        </mxCell>
        <mxCell id="D8szwjgX1KIRaP4R6oDy-93" value="&lt;span style=&quot;font-size: 14px;&quot;&gt;Arrival_Date&lt;br&gt;&lt;/span&gt;" style="ellipse;whiteSpace=wrap;html=1;rotation=0;" parent="1" vertex="1">
          <mxGeometry x="1092" y="68.5" width="108.5" height="37" as="geometry" />
        </mxCell>
        <mxCell id="D8szwjgX1KIRaP4R6oDy-94" value="&lt;u style=&quot;&quot;&gt;&lt;font style=&quot;font-size: 12px;&quot;&gt;Movement_Code&lt;/font&gt;&lt;/u&gt;" style="ellipse;whiteSpace=wrap;html=1;rotation=0;fillColor=#f8cecc;strokeColor=#b85450;" parent="1" vertex="1">
          <mxGeometry x="1105.5" y="111.5" width="108.5" height="37" as="geometry" />
        </mxCell>
        <mxCell id="D8szwjgX1KIRaP4R6oDy-95" value="&lt;span style=&quot;font-size: 16px;&quot;&gt;&lt;i&gt;AirplaneID&lt;/i&gt;&lt;/span&gt;" style="ellipse;whiteSpace=wrap;html=1;rotation=0;fillColor=#d5e8d4;strokeColor=#82b366;" parent="1" vertex="1">
          <mxGeometry x="1105.5" y="153" width="108.5" height="37" as="geometry" />
        </mxCell>
        <mxCell id="D8szwjgX1KIRaP4R6oDy-97" value="" style="endArrow=none;html=1;rounded=0;entryX=0;entryY=0.5;entryDx=0;entryDy=0;exitX=1;exitY=0.75;exitDx=0;exitDy=0;" parent="1" source="j6KMdEsS2Ehn0cWHgv-K-21" target="D8szwjgX1KIRaP4R6oDy-95" edge="1">
          <mxGeometry width="50" height="50" relative="1" as="geometry">
            <mxPoint x="988" y="258" as="sourcePoint" />
            <mxPoint x="1038" y="208" as="targetPoint" />
          </mxGeometry>
        </mxCell>
        <mxCell id="D8szwjgX1KIRaP4R6oDy-98" value="" style="endArrow=none;html=1;rounded=0;entryX=0;entryY=0.5;entryDx=0;entryDy=0;" parent="1" source="j6KMdEsS2Ehn0cWHgv-K-21" target="D8szwjgX1KIRaP4R6oDy-94" edge="1">
          <mxGeometry width="50" height="50" relative="1" as="geometry">
            <mxPoint x="988" y="258" as="sourcePoint" />
            <mxPoint x="1038" y="208" as="targetPoint" />
          </mxGeometry>
        </mxCell>
        <mxCell id="D8szwjgX1KIRaP4R6oDy-99" value="" style="endArrow=none;html=1;rounded=0;entryX=0.054;entryY=0.787;entryDx=0;entryDy=0;entryPerimeter=0;" parent="1" source="j6KMdEsS2Ehn0cWHgv-K-21" target="D8szwjgX1KIRaP4R6oDy-93" edge="1">
          <mxGeometry width="50" height="50" relative="1" as="geometry">
            <mxPoint x="988" y="258" as="sourcePoint" />
            <mxPoint x="1038" y="208" as="targetPoint" />
          </mxGeometry>
        </mxCell>
        <mxCell id="D8szwjgX1KIRaP4R6oDy-104" value="" style="endArrow=none;html=1;rounded=0;" parent="1" source="j6KMdEsS2Ehn0cWHgv-K-21" target="D8szwjgX1KIRaP4R6oDy-92" edge="1">
          <mxGeometry width="50" height="50" relative="1" as="geometry">
            <mxPoint x="988" y="258" as="sourcePoint" />
            <mxPoint x="1038" y="208" as="targetPoint" />
          </mxGeometry>
        </mxCell>
        <mxCell id="D8szwjgX1KIRaP4R6oDy-105" value="" style="endArrow=none;html=1;rounded=0;" parent="1" source="j6KMdEsS2Ehn0cWHgv-K-21" target="D8szwjgX1KIRaP4R6oDy-91" edge="1">
          <mxGeometry width="50" height="50" relative="1" as="geometry">
            <mxPoint x="988" y="258" as="sourcePoint" />
            <mxPoint x="1038" y="208" as="targetPoint" />
          </mxGeometry>
        </mxCell>
        <mxCell id="D8szwjgX1KIRaP4R6oDy-106" value="" style="endArrow=none;html=1;rounded=0;entryX=1;entryY=1;entryDx=0;entryDy=0;" parent="1" source="j6KMdEsS2Ehn0cWHgv-K-21" target="D8szwjgX1KIRaP4R6oDy-90" edge="1">
          <mxGeometry width="50" height="50" relative="1" as="geometry">
            <mxPoint x="988" y="258" as="sourcePoint" />
            <mxPoint x="1038" y="208" as="targetPoint" />
          </mxGeometry>
        </mxCell>
        <mxCell id="D8szwjgX1KIRaP4R6oDy-107" value="&lt;u style=&quot;&quot;&gt;&lt;font style=&quot;font-size: 12px;&quot;&gt;AirlineID&lt;/font&gt;&lt;/u&gt;" style="ellipse;whiteSpace=wrap;html=1;rotation=0;fillColor=#f8cecc;strokeColor=#b85450;" parent="1" vertex="1">
          <mxGeometry x="780" y="820" width="108.5" height="37" as="geometry" />
        </mxCell>
        <mxCell id="D8szwjgX1KIRaP4R6oDy-108" value="&lt;span style=&quot;font-size: 14px;&quot;&gt;Airline_Name&lt;/span&gt;" style="ellipse;whiteSpace=wrap;html=1;rotation=0;" parent="1" vertex="1">
          <mxGeometry x="888.5" y="834" width="108.5" height="37" as="geometry" />
        </mxCell>
        <mxCell id="D8szwjgX1KIRaP4R6oDy-109" value="&lt;span style=&quot;font-size: 14px;&quot;&gt;Contact_Number&lt;/span&gt;" style="ellipse;whiteSpace=wrap;html=1;rotation=0;" parent="1" vertex="1">
          <mxGeometry x="997" y="820" width="108.5" height="37" as="geometry" />
        </mxCell>
        <mxCell id="D8szwjgX1KIRaP4R6oDy-111" value="" style="endArrow=none;html=1;rounded=0;exitX=0.5;exitY=0;exitDx=0;exitDy=0;entryX=0.25;entryY=1;entryDx=0;entryDy=0;" parent="1" source="D8szwjgX1KIRaP4R6oDy-107" target="j6KMdEsS2Ehn0cWHgv-K-10" edge="1">
          <mxGeometry width="50" height="50" relative="1" as="geometry">
            <mxPoint x="988" y="804" as="sourcePoint" />
            <mxPoint x="1038" y="754" as="targetPoint" />
          </mxGeometry>
        </mxCell>
        <mxCell id="D8szwjgX1KIRaP4R6oDy-112" value="" style="endArrow=none;html=1;rounded=0;entryX=0.5;entryY=1;entryDx=0;entryDy=0;exitX=0.466;exitY=0.037;exitDx=0;exitDy=0;exitPerimeter=0;" parent="1" source="D8szwjgX1KIRaP4R6oDy-108" target="j6KMdEsS2Ehn0cWHgv-K-10" edge="1">
          <mxGeometry width="50" height="50" relative="1" as="geometry">
            <mxPoint x="937" y="845" as="sourcePoint" />
            <mxPoint x="869" y="689" as="targetPoint" />
          </mxGeometry>
        </mxCell>
        <mxCell id="D8szwjgX1KIRaP4R6oDy-114" value="" style="endArrow=none;html=1;rounded=0;entryX=0.82;entryY=0.996;entryDx=0;entryDy=0;entryPerimeter=0;" parent="1" source="D8szwjgX1KIRaP4R6oDy-109" target="j6KMdEsS2Ehn0cWHgv-K-10" edge="1">
          <mxGeometry width="50" height="50" relative="1" as="geometry">
            <mxPoint x="871" y="804" as="sourcePoint" />
            <mxPoint x="975" y="793" as="targetPoint" />
          </mxGeometry>
        </mxCell>
        <mxCell id="D8szwjgX1KIRaP4R6oDy-116" value="&lt;u style=&quot;&quot;&gt;&lt;font style=&quot;font-size: 12px;&quot;&gt;AirportCode&lt;/font&gt;&lt;/u&gt;" style="ellipse;whiteSpace=wrap;html=1;rotation=0;fillColor=#f8cecc;strokeColor=#b85450;" parent="1" vertex="1">
          <mxGeometry x="507" y="615.25" width="108.5" height="37" as="geometry" />
        </mxCell>
        <mxCell id="D8szwjgX1KIRaP4R6oDy-117" value="&lt;span style=&quot;font-size: 14px;&quot;&gt;Airport_Name&lt;/span&gt;" style="ellipse;whiteSpace=wrap;html=1;rotation=0;" parent="1" vertex="1">
          <mxGeometry x="553" y="656.75" width="108.5" height="37" as="geometry" />
        </mxCell>
        <mxCell id="D8szwjgX1KIRaP4R6oDy-118" value="&lt;span style=&quot;font-size: 14px;&quot;&gt;City&lt;/span&gt;" style="ellipse;whiteSpace=wrap;html=1;rotation=0;" parent="1" vertex="1">
          <mxGeometry x="653" y="678.75" width="108.5" height="37" as="geometry" />
        </mxCell>
        <mxCell id="D8szwjgX1KIRaP4R6oDy-119" value="&lt;span style=&quot;font-size: 14px;&quot;&gt;Country&lt;/span&gt;" style="ellipse;whiteSpace=wrap;html=1;rotation=0;" parent="1" vertex="1">
          <mxGeometry x="748.75" y="656.75" width="108.5" height="37" as="geometry" />
        </mxCell>
        <mxCell id="D8szwjgX1KIRaP4R6oDy-120" value="" style="endArrow=none;html=1;rounded=0;exitX=1;exitY=0;exitDx=0;exitDy=0;" parent="1" source="D8szwjgX1KIRaP4R6oDy-116" target="j6KMdEsS2Ehn0cWHgv-K-101" edge="1">
          <mxGeometry width="50" height="50" relative="1" as="geometry">
            <mxPoint x="598" y="629.75" as="sourcePoint" />
            <mxPoint x="609" y="590.75" as="targetPoint" />
          </mxGeometry>
        </mxCell>
        <mxCell id="D8szwjgX1KIRaP4R6oDy-121" value="" style="endArrow=none;html=1;rounded=0;entryX=0.088;entryY=1.004;entryDx=0;entryDy=0;entryPerimeter=0;" parent="1" target="j6KMdEsS2Ehn0cWHgv-K-101" edge="1">
          <mxGeometry width="50" height="50" relative="1" as="geometry">
            <mxPoint x="611" y="655.75" as="sourcePoint" />
            <mxPoint x="609" y="590.75" as="targetPoint" />
          </mxGeometry>
        </mxCell>
        <mxCell id="D8szwjgX1KIRaP4R6oDy-122" value="" style="endArrow=none;html=1;rounded=0;exitX=0.5;exitY=0;exitDx=0;exitDy=0;" parent="1" source="D8szwjgX1KIRaP4R6oDy-118" target="j6KMdEsS2Ehn0cWHgv-K-101" edge="1">
          <mxGeometry width="50" height="50" relative="1" as="geometry">
            <mxPoint x="559" y="640.75" as="sourcePoint" />
            <mxPoint x="609" y="590.75" as="targetPoint" />
          </mxGeometry>
        </mxCell>
        <mxCell id="D8szwjgX1KIRaP4R6oDy-123" value="" style="endArrow=none;html=1;rounded=0;" parent="1" source="D8szwjgX1KIRaP4R6oDy-119" target="j6KMdEsS2Ehn0cWHgv-K-101" edge="1">
          <mxGeometry width="50" height="50" relative="1" as="geometry">
            <mxPoint x="559" y="640.75" as="sourcePoint" />
            <mxPoint x="609" y="590.75" as="targetPoint" />
          </mxGeometry>
        </mxCell>
        <mxCell id="D8szwjgX1KIRaP4R6oDy-124" value="&lt;span style=&quot;font-size: 16px;&quot;&gt;&lt;i&gt;AirlineID&lt;/i&gt;&lt;/span&gt;" style="ellipse;whiteSpace=wrap;html=1;rotation=0;fillColor=#d5e8d4;strokeColor=#82b366;" parent="1" vertex="1">
          <mxGeometry x="525.25" y="74.5" width="108.5" height="37" as="geometry" />
        </mxCell>
        <mxCell id="D8szwjgX1KIRaP4R6oDy-126" value="&lt;span style=&quot;font-size: 16px;&quot;&gt;&lt;i&gt;AirplaneID&lt;/i&gt;&lt;/span&gt;" style="ellipse;whiteSpace=wrap;html=1;rotation=0;fillColor=#d5e8d4;strokeColor=#82b366;" parent="1" vertex="1">
          <mxGeometry x="164.5" y="248" width="108.5" height="37" as="geometry" />
        </mxCell>
        <mxCell id="D8szwjgX1KIRaP4R6oDy-127" value="&lt;u style=&quot;&quot;&gt;&lt;font style=&quot;font-size: 12px;&quot;&gt;FlightSitID&lt;/font&gt;&lt;/u&gt;" style="ellipse;whiteSpace=wrap;html=1;rotation=0;fillColor=#f8cecc;strokeColor=#b85450;" parent="1" vertex="1">
          <mxGeometry x="473.75" y="960.5" width="108.5" height="37" as="geometry" />
        </mxCell>
        <mxCell id="D8szwjgX1KIRaP4R6oDy-128" value="&lt;span style=&quot;font-size: 14px;&quot;&gt;Situation&lt;/span&gt;" style="ellipse;whiteSpace=wrap;html=1;rotation=0;" parent="1" vertex="1">
          <mxGeometry x="587.75" y="960.5" width="108.5" height="37" as="geometry" />
        </mxCell>
        <mxCell id="D8szwjgX1KIRaP4R6oDy-129" value="" style="endArrow=none;html=1;rounded=0;exitX=0.422;exitY=-0.051;exitDx=0;exitDy=0;exitPerimeter=0;entryX=0.25;entryY=1;entryDx=0;entryDy=0;" parent="1" source="D8szwjgX1KIRaP4R6oDy-127" target="j6KMdEsS2Ehn0cWHgv-K-44" edge="1">
          <mxGeometry width="50" height="50" relative="1" as="geometry">
            <mxPoint x="691.75" y="885" as="sourcePoint" />
            <mxPoint x="741.75" y="835" as="targetPoint" />
          </mxGeometry>
        </mxCell>
        <mxCell id="D8szwjgX1KIRaP4R6oDy-130" value="" style="endArrow=none;html=1;rounded=0;entryX=0.75;entryY=1;entryDx=0;entryDy=0;exitX=0.5;exitY=0;exitDx=0;exitDy=0;" parent="1" source="D8szwjgX1KIRaP4R6oDy-128" target="j6KMdEsS2Ehn0cWHgv-K-44" edge="1">
          <mxGeometry width="50" height="50" relative="1" as="geometry">
            <mxPoint x="561.75" y="939" as="sourcePoint" />
            <mxPoint x="741.75" y="835" as="targetPoint" />
          </mxGeometry>
        </mxCell>
        <mxCell id="D8szwjgX1KIRaP4R6oDy-132" value="&lt;span style=&quot;font-size: 16px;&quot;&gt;&lt;i&gt;FlightSitID&lt;/i&gt;&lt;/span&gt;" style="ellipse;whiteSpace=wrap;html=1;rotation=0;fillColor=#d5e8d4;strokeColor=#82b366;" parent="1" vertex="1">
          <mxGeometry x="180" y="210" width="108.5" height="37" as="geometry" />
        </mxCell>
        <mxCell id="D8szwjgX1KIRaP4R6oDy-133" value="&lt;u style=&quot;&quot;&gt;&lt;font style=&quot;font-size: 12px;&quot;&gt;SeatID&lt;/font&gt;&lt;/u&gt;" style="ellipse;whiteSpace=wrap;html=1;rotation=0;fillColor=#f8cecc;strokeColor=#b85450;" parent="1" vertex="1">
          <mxGeometry x="107.5" y="734.5" width="108.5" height="37" as="geometry" />
        </mxCell>
        <mxCell id="D8szwjgX1KIRaP4R6oDy-134" value="&lt;span style=&quot;font-size: 16px;&quot;&gt;&lt;i&gt;FlightID&lt;/i&gt;&lt;/span&gt;" style="ellipse;whiteSpace=wrap;html=1;rotation=0;fillColor=#d5e8d4;strokeColor=#82b366;" parent="1" vertex="1">
          <mxGeometry x="132.5" y="780" width="108.5" height="37" as="geometry" />
        </mxCell>
        <mxCell id="D8szwjgX1KIRaP4R6oDy-135" value="&lt;span style=&quot;font-size: 14px;&quot;&gt;SeatNumber&lt;/span&gt;" style="ellipse;whiteSpace=wrap;html=1;rotation=0;" parent="1" vertex="1">
          <mxGeometry x="398.5" y="805" width="108.5" height="37" as="geometry" />
        </mxCell>
        <mxCell id="D8szwjgX1KIRaP4R6oDy-136" value="&lt;span style=&quot;font-size: 14px;&quot;&gt;Price&lt;/span&gt;" style="ellipse;whiteSpace=wrap;html=1;rotation=0;" parent="1" vertex="1">
          <mxGeometry x="427" y="764.5" width="108.5" height="37" as="geometry" />
        </mxCell>
        <mxCell id="D8szwjgX1KIRaP4R6oDy-137" value="&lt;span style=&quot;font-size: 14px;&quot;&gt;Availability&lt;/span&gt;" style="ellipse;whiteSpace=wrap;html=1;rotation=0;" parent="1" vertex="1">
          <mxGeometry x="190.5" y="825" width="108.5" height="37" as="geometry" />
        </mxCell>
        <mxCell id="D8szwjgX1KIRaP4R6oDy-139" value="" style="endArrow=none;html=1;rounded=0;entryX=0.013;entryY=0.899;entryDx=0;entryDy=0;entryPerimeter=0;" parent="1" source="D8szwjgX1KIRaP4R6oDy-133" target="j6KMdEsS2Ehn0cWHgv-K-49" edge="1">
          <mxGeometry width="50" height="50" relative="1" as="geometry">
            <mxPoint x="377" y="713" as="sourcePoint" />
            <mxPoint x="427" y="663" as="targetPoint" />
          </mxGeometry>
        </mxCell>
        <mxCell id="D8szwjgX1KIRaP4R6oDy-141" value="" style="endArrow=none;html=1;rounded=0;" parent="1" source="D8szwjgX1KIRaP4R6oDy-134" target="j6KMdEsS2Ehn0cWHgv-K-49" edge="1">
          <mxGeometry width="50" height="50" relative="1" as="geometry">
            <mxPoint x="377" y="713" as="sourcePoint" />
            <mxPoint x="275" y="734" as="targetPoint" />
          </mxGeometry>
        </mxCell>
        <mxCell id="D8szwjgX1KIRaP4R6oDy-142" value="" style="endArrow=none;html=1;rounded=0;exitX=0.311;exitY=0.069;exitDx=0;exitDy=0;exitPerimeter=0;entryX=0.5;entryY=1;entryDx=0;entryDy=0;" parent="1" source="D8szwjgX1KIRaP4R6oDy-137" target="j6KMdEsS2Ehn0cWHgv-K-49" edge="1">
          <mxGeometry width="50" height="50" relative="1" as="geometry">
            <mxPoint x="377" y="713" as="sourcePoint" />
            <mxPoint x="427" y="663" as="targetPoint" />
          </mxGeometry>
        </mxCell>
        <mxCell id="D8szwjgX1KIRaP4R6oDy-143" value="" style="endArrow=none;html=1;rounded=0;exitX=0;exitY=0;exitDx=0;exitDy=0;entryX=0.728;entryY=0.985;entryDx=0;entryDy=0;entryPerimeter=0;" parent="1" source="D8szwjgX1KIRaP4R6oDy-135" target="j6KMdEsS2Ehn0cWHgv-K-49" edge="1">
          <mxGeometry width="50" height="50" relative="1" as="geometry">
            <mxPoint x="377" y="713" as="sourcePoint" />
            <mxPoint x="427" y="663" as="targetPoint" />
          </mxGeometry>
        </mxCell>
        <mxCell id="D8szwjgX1KIRaP4R6oDy-144" value="" style="endArrow=none;html=1;rounded=0;entryX=0.569;entryY=0.012;entryDx=0;entryDy=0;entryPerimeter=0;exitX=1;exitY=1;exitDx=0;exitDy=0;" parent="1" source="j6KMdEsS2Ehn0cWHgv-K-49" target="D8szwjgX1KIRaP4R6oDy-136" edge="1">
          <mxGeometry width="50" height="50" relative="1" as="geometry">
            <mxPoint x="377" y="713" as="sourcePoint" />
            <mxPoint x="427" y="663" as="targetPoint" />
          </mxGeometry>
        </mxCell>
        <mxCell id="D8szwjgX1KIRaP4R6oDy-145" value="&lt;u style=&quot;&quot;&gt;&lt;font style=&quot;font-size: 12px;&quot;&gt;FlightID&lt;/font&gt;&lt;/u&gt;" style="ellipse;whiteSpace=wrap;html=1;rotation=0;fillColor=#f8cecc;strokeColor=#b85450;" parent="1" vertex="1">
          <mxGeometry x="265.5" y="179" width="108.5" height="37" as="geometry" />
        </mxCell>
        <mxCell id="D8szwjgX1KIRaP4R6oDy-146" value="&lt;font style=&quot;font-size: 11px;&quot;&gt;Arrival_Airport_Code&lt;/font&gt;" style="ellipse;whiteSpace=wrap;html=1;rotation=0;fillColor=#d5e8d4;strokeColor=#82b366;" parent="1" vertex="1">
          <mxGeometry x="361" y="201" width="108.5" height="37" as="geometry" />
        </mxCell>
        <mxCell id="D8szwjgX1KIRaP4R6oDy-147" value="&lt;font style=&quot;font-size: 10px;&quot;&gt;Departure_Airport_Code&lt;/font&gt;" style="ellipse;whiteSpace=wrap;html=1;rotation=0;fillColor=#d5e8d4;strokeColor=#82b366;" parent="1" vertex="1">
          <mxGeometry x="374" y="247" width="108.5" height="37" as="geometry" />
        </mxCell>
        <mxCell id="D8szwjgX1KIRaP4R6oDy-148" value="" style="endArrow=none;html=1;rounded=0;exitX=0.75;exitY=0;exitDx=0;exitDy=0;" parent="1" source="j6KMdEsS2Ehn0cWHgv-K-6" target="D8szwjgX1KIRaP4R6oDy-147" edge="1">
          <mxGeometry width="50" height="50" relative="1" as="geometry">
            <mxPoint x="364" y="312" as="sourcePoint" />
            <mxPoint x="403" y="260" as="targetPoint" />
          </mxGeometry>
        </mxCell>
        <mxCell id="D8szwjgX1KIRaP4R6oDy-149" value="" style="endArrow=none;html=1;rounded=0;entryX=0;entryY=1;entryDx=0;entryDy=0;exitX=0.612;exitY=0.001;exitDx=0;exitDy=0;exitPerimeter=0;" parent="1" source="j6KMdEsS2Ehn0cWHgv-K-6" target="D8szwjgX1KIRaP4R6oDy-146" edge="1">
          <mxGeometry width="50" height="50" relative="1" as="geometry">
            <mxPoint x="338" y="336" as="sourcePoint" />
            <mxPoint x="388" y="286" as="targetPoint" />
          </mxGeometry>
        </mxCell>
        <mxCell id="D8szwjgX1KIRaP4R6oDy-150" value="" style="endArrow=none;html=1;rounded=0;entryX=0.5;entryY=1;entryDx=0;entryDy=0;exitX=0.5;exitY=0;exitDx=0;exitDy=0;" parent="1" source="j6KMdEsS2Ehn0cWHgv-K-6" target="D8szwjgX1KIRaP4R6oDy-145" edge="1">
          <mxGeometry width="50" height="50" relative="1" as="geometry">
            <mxPoint x="338" y="336" as="sourcePoint" />
            <mxPoint x="388" y="286" as="targetPoint" />
          </mxGeometry>
        </mxCell>
        <mxCell id="D8szwjgX1KIRaP4R6oDy-151" value="" style="endArrow=none;html=1;rounded=0;entryX=1;entryY=1;entryDx=0;entryDy=0;" parent="1" source="j6KMdEsS2Ehn0cWHgv-K-6" target="D8szwjgX1KIRaP4R6oDy-132" edge="1">
          <mxGeometry width="50" height="50" relative="1" as="geometry">
            <mxPoint x="325" y="325" as="sourcePoint" />
            <mxPoint x="388" y="286" as="targetPoint" />
          </mxGeometry>
        </mxCell>
        <mxCell id="D8szwjgX1KIRaP4R6oDy-152" value="" style="endArrow=none;html=1;rounded=0;entryX=1;entryY=1;entryDx=0;entryDy=0;exitX=0.25;exitY=0;exitDx=0;exitDy=0;" parent="1" source="j6KMdEsS2Ehn0cWHgv-K-6" target="D8szwjgX1KIRaP4R6oDy-126" edge="1">
          <mxGeometry width="50" height="50" relative="1" as="geometry">
            <mxPoint x="338" y="323" as="sourcePoint" />
            <mxPoint x="388" y="273" as="targetPoint" />
          </mxGeometry>
        </mxCell>
        <mxCell id="D8szwjgX1KIRaP4R6oDy-153" value="&lt;span style=&quot;font-size: 16px;&quot;&gt;&lt;i&gt;FlightID&lt;/i&gt;&lt;/span&gt;" style="ellipse;whiteSpace=wrap;html=1;rotation=0;fillColor=#d5e8d4;strokeColor=#82b366;" parent="1" vertex="1">
          <mxGeometry x="-20" y="273" width="108.5" height="37" as="geometry" />
        </mxCell>
        <mxCell id="D8szwjgX1KIRaP4R6oDy-154" value="&lt;u style=&quot;&quot;&gt;&lt;font style=&quot;font-size: 12px;&quot;&gt;BaggageID&lt;/font&gt;&lt;/u&gt;" style="ellipse;whiteSpace=wrap;html=1;rotation=0;fillColor=#f8cecc;strokeColor=#b85450;" parent="1" vertex="1">
          <mxGeometry x="-443.5" y="821" width="108.5" height="37" as="geometry" />
        </mxCell>
        <mxCell id="D8szwjgX1KIRaP4R6oDy-156" value="&lt;span style=&quot;font-size: 16px;&quot;&gt;&lt;i&gt;PNR&lt;/i&gt;&lt;/span&gt;" style="ellipse;whiteSpace=wrap;html=1;rotation=0;fillColor=#d5e8d4;strokeColor=#82b366;" parent="1" vertex="1">
          <mxGeometry x="-391.5" y="875.5" width="104" height="35" as="geometry" />
        </mxCell>
        <mxCell id="D8szwjgX1KIRaP4R6oDy-157" value="&lt;span style=&quot;font-size: 14px;&quot;&gt;Weight&lt;/span&gt;" style="ellipse;whiteSpace=wrap;html=1;rotation=0;" parent="1" vertex="1">
          <mxGeometry x="-295.75" y="894.5" width="108.5" height="37" as="geometry" />
        </mxCell>
        <mxCell id="D8szwjgX1KIRaP4R6oDy-158" value="&lt;span style=&quot;font-size: 14px;&quot;&gt;Price&lt;/span&gt;" style="ellipse;whiteSpace=wrap;html=1;rotation=0;" parent="1" vertex="1">
          <mxGeometry x="-187.25" y="883.5" width="108.5" height="37" as="geometry" />
        </mxCell>
        <mxCell id="D8szwjgX1KIRaP4R6oDy-159" value="" style="endArrow=none;html=1;rounded=0;exitX=1;exitY=0;exitDx=0;exitDy=0;" parent="1" source="D8szwjgX1KIRaP4R6oDy-154" target="j6KMdEsS2Ehn0cWHgv-K-85" edge="1">
          <mxGeometry width="50" height="50" relative="1" as="geometry">
            <mxPoint x="-196.5" y="817.5" as="sourcePoint" />
            <mxPoint x="-146.5" y="767.5" as="targetPoint" />
          </mxGeometry>
        </mxCell>
        <mxCell id="D8szwjgX1KIRaP4R6oDy-160" value="" style="endArrow=none;html=1;rounded=0;entryX=0;entryY=0.75;entryDx=0;entryDy=0;" parent="1" source="D8szwjgX1KIRaP4R6oDy-156" target="j6KMdEsS2Ehn0cWHgv-K-85" edge="1">
          <mxGeometry width="50" height="50" relative="1" as="geometry">
            <mxPoint x="-196.5" y="817.5" as="sourcePoint" />
            <mxPoint x="-146.5" y="767.5" as="targetPoint" />
          </mxGeometry>
        </mxCell>
        <mxCell id="D8szwjgX1KIRaP4R6oDy-162" value="" style="endArrow=none;html=1;rounded=0;exitX=0.5;exitY=0;exitDx=0;exitDy=0;" parent="1" source="D8szwjgX1KIRaP4R6oDy-157" target="j6KMdEsS2Ehn0cWHgv-K-85" edge="1">
          <mxGeometry width="50" height="50" relative="1" as="geometry">
            <mxPoint x="-196.5" y="817.5" as="sourcePoint" />
            <mxPoint x="-183.5" y="858.5" as="targetPoint" />
          </mxGeometry>
        </mxCell>
        <mxCell id="D8szwjgX1KIRaP4R6oDy-163" value="" style="endArrow=none;html=1;rounded=0;entryX=0.883;entryY=0.992;entryDx=0;entryDy=0;entryPerimeter=0;" parent="1" source="D8szwjgX1KIRaP4R6oDy-158" target="j6KMdEsS2Ehn0cWHgv-K-85" edge="1">
          <mxGeometry width="50" height="50" relative="1" as="geometry">
            <mxPoint x="-196.5" y="817.5" as="sourcePoint" />
            <mxPoint x="-118.5" y="845.5" as="targetPoint" />
          </mxGeometry>
        </mxCell>
        <mxCell id="D8szwjgX1KIRaP4R6oDy-164" value="&lt;u style=&quot;&quot;&gt;&lt;font style=&quot;font-size: 12px;&quot;&gt;ReceptID&lt;/font&gt;&lt;/u&gt;" style="ellipse;whiteSpace=wrap;html=1;rotation=0;fillColor=#f8cecc;strokeColor=#b85450;" parent="1" vertex="1">
          <mxGeometry x="-93.25" y="686.5" width="108.5" height="37" as="geometry" />
        </mxCell>
        <mxCell id="D8szwjgX1KIRaP4R6oDy-166" value="" style="endArrow=none;html=1;rounded=0;entryX=0;entryY=0.75;entryDx=0;entryDy=0;" parent="1" source="D8szwjgX1KIRaP4R6oDy-164" target="j6KMdEsS2Ehn0cWHgv-K-58" edge="1">
          <mxGeometry width="50" height="50" relative="1" as="geometry">
            <mxPoint x="52" y="689" as="sourcePoint" />
            <mxPoint x="50" y="624" as="targetPoint" />
          </mxGeometry>
        </mxCell>
        <mxCell id="D8szwjgX1KIRaP4R6oDy-167" value="&lt;span style=&quot;font-size: 14px;&quot;&gt;Name&lt;/span&gt;" style="ellipse;whiteSpace=wrap;html=1;rotation=0;" parent="1" vertex="1">
          <mxGeometry x="-81.75" y="743" width="108.5" height="37" as="geometry" />
        </mxCell>
        <mxCell id="D8szwjgX1KIRaP4R6oDy-168" value="&lt;span style=&quot;font-size: 14px;&quot;&gt;Surname&lt;/span&gt;" style="ellipse;whiteSpace=wrap;html=1;rotation=0;" parent="1" vertex="1">
          <mxGeometry x="-67.5" y="619.5" width="108.5" height="37" as="geometry" />
        </mxCell>
        <mxCell id="D8szwjgX1KIRaP4R6oDy-171" value="" style="endArrow=none;html=1;rounded=0;exitX=0;exitY=0.25;exitDx=0;exitDy=0;" parent="1" source="j6KMdEsS2Ehn0cWHgv-K-58" target="D8szwjgX1KIRaP4R6oDy-168" edge="1">
          <mxGeometry width="50" height="50" relative="1" as="geometry">
            <mxPoint y="674" as="sourcePoint" />
            <mxPoint x="50" y="624" as="targetPoint" />
          </mxGeometry>
        </mxCell>
        <mxCell id="D8szwjgX1KIRaP4R6oDy-172" value="" style="endArrow=none;html=1;rounded=0;exitX=0.704;exitY=-0.021;exitDx=0;exitDy=0;exitPerimeter=0;entryX=0.25;entryY=1;entryDx=0;entryDy=0;" parent="1" source="D8szwjgX1KIRaP4R6oDy-167" target="j6KMdEsS2Ehn0cWHgv-K-58" edge="1">
          <mxGeometry width="50" height="50" relative="1" as="geometry">
            <mxPoint y="674" as="sourcePoint" />
            <mxPoint x="50" y="624" as="targetPoint" />
          </mxGeometry>
        </mxCell>
        <mxCell id="D8szwjgX1KIRaP4R6oDy-173" value="&lt;span style=&quot;font-size: 16px;&quot;&gt;&lt;i&gt;ReceptID&lt;/i&gt;&lt;/span&gt;" style="ellipse;whiteSpace=wrap;html=1;rotation=0;fillColor=#d5e8d4;strokeColor=#82b366;" parent="1" vertex="1">
          <mxGeometry x="10.5" y="407" width="108.5" height="37" as="geometry" />
        </mxCell>
        <mxCell id="D8szwjgX1KIRaP4R6oDy-174" value="&lt;span style=&quot;font-size: 16px;&quot;&gt;&lt;i&gt;ClientID&lt;/i&gt;&lt;/span&gt;" style="ellipse;whiteSpace=wrap;html=1;rotation=0;fillColor=#d5e8d4;strokeColor=#82b366;" parent="1" vertex="1">
          <mxGeometry x="-199.5" y="236" width="108.5" height="37" as="geometry" />
        </mxCell>
        <mxCell id="D8szwjgX1KIRaP4R6oDy-183" value="&lt;span style=&quot;font-size: 16px;&quot;&gt;&lt;u&gt;EmpID&lt;/u&gt;&lt;/span&gt;" style="ellipse;whiteSpace=wrap;html=1;rotation=0;fillColor=#f8cecc;strokeColor=#b85450;" parent="1" vertex="1">
          <mxGeometry x="-299" y="981.5" width="108.5" height="37" as="geometry" />
        </mxCell>
        <mxCell id="D8szwjgX1KIRaP4R6oDy-184" value="&lt;span style=&quot;font-size: 14px;&quot;&gt;Address&lt;/span&gt;" style="ellipse;whiteSpace=wrap;html=1;rotation=0;" parent="1" vertex="1">
          <mxGeometry x="-338" y="1149" width="108.5" height="37" as="geometry" />
        </mxCell>
        <mxCell id="D8szwjgX1KIRaP4R6oDy-185" value="&lt;span style=&quot;font-size: 14px;&quot;&gt;Street&lt;/span&gt;" style="ellipse;whiteSpace=wrap;html=1;rotation=0;" parent="1" vertex="1">
          <mxGeometry x="-473" y="1146" width="108.5" height="37" as="geometry" />
        </mxCell>
        <mxCell id="D8szwjgX1KIRaP4R6oDy-186" value="&lt;span style=&quot;font-size: 14px;&quot;&gt;Apartment&lt;/span&gt;" style="ellipse;whiteSpace=wrap;html=1;rotation=0;" parent="1" vertex="1">
          <mxGeometry x="-458" y="1196" width="108.5" height="37" as="geometry" />
        </mxCell>
        <mxCell id="D8szwjgX1KIRaP4R6oDy-187" value="&lt;span style=&quot;font-size: 14px;&quot;&gt;City&lt;/span&gt;" style="ellipse;whiteSpace=wrap;html=1;rotation=0;" parent="1" vertex="1">
          <mxGeometry x="-364.5" y="1233" width="108.5" height="37" as="geometry" />
        </mxCell>
        <mxCell id="D8szwjgX1KIRaP4R6oDy-189" value="&lt;span style=&quot;font-size: 14px;&quot;&gt;Tel_No&lt;/span&gt;" style="ellipse;whiteSpace=wrap;html=1;rotation=0;" parent="1" vertex="1">
          <mxGeometry x="-327.5" y="1034" width="108.5" height="37" as="geometry" />
        </mxCell>
        <mxCell id="D8szwjgX1KIRaP4R6oDy-192" value="&lt;span style=&quot;font-size: 14px;&quot;&gt;Email&lt;/span&gt;" style="ellipse;whiteSpace=wrap;html=1;rotation=0;" parent="1" vertex="1">
          <mxGeometry x="-208.25" y="1132" width="108.5" height="37" as="geometry" />
        </mxCell>
        <mxCell id="D8szwjgX1KIRaP4R6oDy-193" value="" style="endArrow=none;html=1;rounded=0;exitX=1;exitY=0;exitDx=0;exitDy=0;" parent="1" source="D8szwjgX1KIRaP4R6oDy-184" target="j6KMdEsS2Ehn0cWHgv-K-53" edge="1">
          <mxGeometry width="50" height="50" relative="1" as="geometry">
            <mxPoint x="-78" y="973" as="sourcePoint" />
            <mxPoint x="-28" y="923" as="targetPoint" />
          </mxGeometry>
        </mxCell>
        <mxCell id="D8szwjgX1KIRaP4R6oDy-194" value="" style="endArrow=none;html=1;rounded=0;exitX=0.436;exitY=0.016;exitDx=0;exitDy=0;exitPerimeter=0;entryX=0.5;entryY=1;entryDx=0;entryDy=0;" parent="1" source="D8szwjgX1KIRaP4R6oDy-192" target="j6KMdEsS2Ehn0cWHgv-K-53" edge="1">
          <mxGeometry width="50" height="50" relative="1" as="geometry">
            <mxPoint x="-119.5" y="1025.5" as="sourcePoint" />
            <mxPoint x="-69.5" y="975.5" as="targetPoint" />
          </mxGeometry>
        </mxCell>
        <mxCell id="D8szwjgX1KIRaP4R6oDy-195" value="" style="endArrow=none;html=1;rounded=0;exitX=1;exitY=0.5;exitDx=0;exitDy=0;entryX=0;entryY=0.5;entryDx=0;entryDy=0;" parent="1" source="D8szwjgX1KIRaP4R6oDy-189" target="j6KMdEsS2Ehn0cWHgv-K-53" edge="1">
          <mxGeometry width="50" height="50" relative="1" as="geometry">
            <mxPoint x="-119.5" y="1025.5" as="sourcePoint" />
            <mxPoint x="-69.5" y="975.5" as="targetPoint" />
          </mxGeometry>
        </mxCell>
        <mxCell id="D8szwjgX1KIRaP4R6oDy-196" value="" style="endArrow=none;html=1;rounded=0;exitX=1;exitY=0.5;exitDx=0;exitDy=0;" parent="1" source="D8szwjgX1KIRaP4R6oDy-185" target="D8szwjgX1KIRaP4R6oDy-184" edge="1">
          <mxGeometry width="50" height="50" relative="1" as="geometry">
            <mxPoint x="-152" y="1083" as="sourcePoint" />
            <mxPoint x="-102" y="1033" as="targetPoint" />
          </mxGeometry>
        </mxCell>
        <mxCell id="D8szwjgX1KIRaP4R6oDy-197" value="" style="endArrow=none;html=1;rounded=0;exitX=1;exitY=0;exitDx=0;exitDy=0;entryX=0;entryY=1;entryDx=0;entryDy=0;" parent="1" source="D8szwjgX1KIRaP4R6oDy-186" target="D8szwjgX1KIRaP4R6oDy-184" edge="1">
          <mxGeometry width="50" height="50" relative="1" as="geometry">
            <mxPoint x="-152" y="1083" as="sourcePoint" />
            <mxPoint x="-102" y="1033" as="targetPoint" />
          </mxGeometry>
        </mxCell>
        <mxCell id="D8szwjgX1KIRaP4R6oDy-198" value="" style="endArrow=none;html=1;rounded=0;entryX=1;entryY=0.5;entryDx=0;entryDy=0;exitX=0.5;exitY=0;exitDx=0;exitDy=0;" parent="1" source="j6KMdEsS2Ehn0cWHgv-K-53" target="D8szwjgX1KIRaP4R6oDy-183" edge="1">
          <mxGeometry width="50" height="50" relative="1" as="geometry">
            <mxPoint x="-119.5" y="1025.5" as="sourcePoint" />
            <mxPoint x="-69.5" y="975.5" as="targetPoint" />
          </mxGeometry>
        </mxCell>
        <mxCell id="D8szwjgX1KIRaP4R6oDy-199" value="" style="endArrow=none;html=1;rounded=0;exitX=0.587;exitY=0.016;exitDx=0;exitDy=0;exitPerimeter=0;" parent="1" source="D8szwjgX1KIRaP4R6oDy-187" target="D8szwjgX1KIRaP4R6oDy-184" edge="1">
          <mxGeometry width="50" height="50" relative="1" as="geometry">
            <mxPoint x="-295" y="1241" as="sourcePoint" />
            <mxPoint x="-102" y="1033" as="targetPoint" />
          </mxGeometry>
        </mxCell>
        <mxCell id="D8szwjgX1KIRaP4R6oDy-206" value="&lt;span style=&quot;font-size: 16px;&quot;&gt;&lt;u&gt;CrewID&lt;/u&gt;&lt;/span&gt;" style="ellipse;whiteSpace=wrap;html=1;rotation=0;fillColor=#f8cecc;strokeColor=#b85450;" parent="1" vertex="1">
          <mxGeometry x="71.5" y="1159" width="108.5" height="37" as="geometry" />
        </mxCell>
        <mxCell id="D8szwjgX1KIRaP4R6oDy-207" value="&lt;span style=&quot;font-size: 14px;&quot;&gt;Task&lt;/span&gt;" style="ellipse;whiteSpace=wrap;html=1;rotation=0;" parent="1" vertex="1">
          <mxGeometry x="318.5" y="1146" width="108.5" height="37" as="geometry" />
        </mxCell>
        <mxCell id="D8szwjgX1KIRaP4R6oDy-208" value="&lt;span style=&quot;font-size: 14px;&quot;&gt;Name&lt;/span&gt;" style="ellipse;whiteSpace=wrap;html=1;rotation=0;" parent="1" vertex="1">
          <mxGeometry x="150" y="1196" width="108.5" height="37" as="geometry" />
        </mxCell>
        <mxCell id="D8szwjgX1KIRaP4R6oDy-209" value="&lt;span style=&quot;font-size: 14px;&quot;&gt;Surname&lt;/span&gt;" style="ellipse;whiteSpace=wrap;html=1;rotation=0;" parent="1" vertex="1">
          <mxGeometry x="258.5" y="1183" width="108.5" height="37" as="geometry" />
        </mxCell>
        <mxCell id="D8szwjgX1KIRaP4R6oDy-210" value="" style="endArrow=none;html=1;rounded=0;exitX=0.631;exitY=0.063;exitDx=0;exitDy=0;exitPerimeter=0;" parent="1" source="D8szwjgX1KIRaP4R6oDy-206" target="j6KMdEsS2Ehn0cWHgv-K-62" edge="1">
          <mxGeometry width="50" height="50" relative="1" as="geometry">
            <mxPoint x="117" y="1155" as="sourcePoint" />
            <mxPoint x="167" y="1105" as="targetPoint" />
          </mxGeometry>
        </mxCell>
        <mxCell id="D8szwjgX1KIRaP4R6oDy-211" value="" style="endArrow=none;html=1;rounded=0;entryX=0.359;entryY=1.012;entryDx=0;entryDy=0;entryPerimeter=0;" parent="1" source="D8szwjgX1KIRaP4R6oDy-208" target="j6KMdEsS2Ehn0cWHgv-K-62" edge="1">
          <mxGeometry width="50" height="50" relative="1" as="geometry">
            <mxPoint x="153" y="1174" as="sourcePoint" />
            <mxPoint x="193" y="1157" as="targetPoint" />
          </mxGeometry>
        </mxCell>
        <mxCell id="D8szwjgX1KIRaP4R6oDy-212" value="" style="endArrow=none;html=1;rounded=0;entryX=0.571;entryY=0.992;entryDx=0;entryDy=0;entryPerimeter=0;exitX=0;exitY=0;exitDx=0;exitDy=0;" parent="1" source="D8szwjgX1KIRaP4R6oDy-209" target="j6KMdEsS2Ehn0cWHgv-K-62" edge="1">
          <mxGeometry width="50" height="50" relative="1" as="geometry">
            <mxPoint x="222" y="1209" as="sourcePoint" />
            <mxPoint x="234" y="1157" as="targetPoint" />
          </mxGeometry>
        </mxCell>
        <mxCell id="D8szwjgX1KIRaP4R6oDy-213" value="" style="endArrow=none;html=1;rounded=0;entryX=1;entryY=0.75;entryDx=0;entryDy=0;" parent="1" source="D8szwjgX1KIRaP4R6oDy-207" target="j6KMdEsS2Ehn0cWHgv-K-62" edge="1">
          <mxGeometry width="50" height="50" relative="1" as="geometry">
            <mxPoint x="234" y="1168" as="sourcePoint" />
            <mxPoint x="284" y="1118" as="targetPoint" />
          </mxGeometry>
        </mxCell>
        <mxCell id="D8szwjgX1KIRaP4R6oDy-214" value="&lt;u style=&quot;&quot;&gt;&lt;font style=&quot;font-size: 18px;&quot;&gt;PNR&lt;/font&gt;&lt;/u&gt;" style="ellipse;whiteSpace=wrap;html=1;rotation=0;fillColor=#f8cecc;strokeColor=#b85450;" parent="1" vertex="1">
          <mxGeometry x="-249.5" y="378" width="108.5" height="37" as="geometry" />
        </mxCell>
        <mxCell id="D8szwjgX1KIRaP4R6oDy-217" value="&lt;span style=&quot;font-size: 16px;&quot;&gt;Total_Price&lt;/span&gt;" style="ellipse;whiteSpace=wrap;html=1;rotation=0;" parent="1" vertex="1">
          <mxGeometry x="-256" y="291" width="108.5" height="37" as="geometry" />
        </mxCell>
        <mxCell id="D8szwjgX1KIRaP4R6oDy-218" value="" style="endArrow=none;html=1;rounded=0;" parent="1" target="D8szwjgX1KIRaP4R6oDy-174" edge="1">
          <mxGeometry width="50" height="50" relative="1" as="geometry">
            <mxPoint x="-91" y="323" as="sourcePoint" />
            <mxPoint x="-41" y="273" as="targetPoint" />
          </mxGeometry>
        </mxCell>
        <mxCell id="D8szwjgX1KIRaP4R6oDy-219" value="" style="endArrow=none;html=1;rounded=0;entryX=0;entryY=0.5;entryDx=0;entryDy=0;exitX=0.5;exitY=1;exitDx=0;exitDy=0;" parent="1" source="D8szwjgX1KIRaP4R6oDy-18" target="D8szwjgX1KIRaP4R6oDy-153" edge="1">
          <mxGeometry width="50" height="50" relative="1" as="geometry">
            <mxPoint x="-91" y="323" as="sourcePoint" />
            <mxPoint x="-41" y="273" as="targetPoint" />
          </mxGeometry>
        </mxCell>
        <mxCell id="D8szwjgX1KIRaP4R6oDy-220" value="" style="endArrow=none;html=1;rounded=0;exitX=0;exitY=0;exitDx=0;exitDy=0;" parent="1" source="j6KMdEsS2Ehn0cWHgv-K-73" target="D8szwjgX1KIRaP4R6oDy-217" edge="1">
          <mxGeometry width="50" height="50" relative="1" as="geometry">
            <mxPoint x="-91" y="323" as="sourcePoint" />
            <mxPoint x="-41" y="273" as="targetPoint" />
          </mxGeometry>
        </mxCell>
        <mxCell id="D8szwjgX1KIRaP4R6oDy-221" value="" style="endArrow=none;html=1;rounded=0;entryX=0;entryY=0.75;entryDx=0;entryDy=0;" parent="1" source="D8szwjgX1KIRaP4R6oDy-214" target="j6KMdEsS2Ehn0cWHgv-K-73" edge="1">
          <mxGeometry width="50" height="50" relative="1" as="geometry">
            <mxPoint x="-91" y="323" as="sourcePoint" />
            <mxPoint x="-41" y="273" as="targetPoint" />
          </mxGeometry>
        </mxCell>
        <mxCell id="D8szwjgX1KIRaP4R6oDy-222" value="" style="endArrow=none;html=1;rounded=0;entryX=1.005;entryY=0.853;entryDx=0;entryDy=0;entryPerimeter=0;" parent="1" source="D8szwjgX1KIRaP4R6oDy-173" target="j6KMdEsS2Ehn0cWHgv-K-73" edge="1">
          <mxGeometry width="50" height="50" relative="1" as="geometry">
            <mxPoint x="-91" y="323" as="sourcePoint" />
            <mxPoint x="-41" y="273" as="targetPoint" />
          </mxGeometry>
        </mxCell>
        <mxCell id="D8szwjgX1KIRaP4R6oDy-227" value="&lt;font style=&quot;font-size: 16px;&quot;&gt;Name&lt;/font&gt;" style="ellipse;whiteSpace=wrap;html=1;rotation=0;" parent="1" vertex="1">
          <mxGeometry x="-640.5" y="611" width="104" height="35" as="geometry" />
        </mxCell>
        <mxCell id="D8szwjgX1KIRaP4R6oDy-228" value="&lt;font style=&quot;font-size: 16px;&quot;&gt;Surname&lt;/font&gt;" style="ellipse;whiteSpace=wrap;html=1;rotation=0;" parent="1" vertex="1">
          <mxGeometry x="-536.5" y="613.5" width="104" height="35" as="geometry" />
        </mxCell>
        <mxCell id="D8szwjgX1KIRaP4R6oDy-233" value="" style="endArrow=none;html=1;rounded=0;exitX=0.5;exitY=0;exitDx=0;exitDy=0;entryX=0.19;entryY=1.064;entryDx=0;entryDy=0;entryPerimeter=0;" parent="1" source="D8szwjgX1KIRaP4R6oDy-227" target="j6KMdEsS2Ehn0cWHgv-K-88" edge="1">
          <mxGeometry width="50" height="50" relative="1" as="geometry">
            <mxPoint x="-494" y="596" as="sourcePoint" />
            <mxPoint x="-444" y="546" as="targetPoint" />
          </mxGeometry>
        </mxCell>
        <mxCell id="D8szwjgX1KIRaP4R6oDy-234" value="" style="endArrow=none;html=1;rounded=0;entryX=0.124;entryY=0.017;entryDx=0;entryDy=0;entryPerimeter=0;" parent="1" source="D8szwjgX1KIRaP4R6oDy-228" target="D8szwjgX1KIRaP4R6oDy-14" edge="1">
          <mxGeometry width="50" height="50" relative="1" as="geometry">
            <mxPoint x="-494" y="596" as="sourcePoint" />
            <mxPoint x="-442" y="546" as="targetPoint" />
          </mxGeometry>
        </mxCell>
        <mxCell id="RXXReTnxs_ncUNw5jES5-2" value="&lt;h1 style=&quot;border-color: var(--border-color);&quot;&gt;&lt;span style=&quot;font-size: 21px;&quot;&gt;Booking&lt;/span&gt;&lt;/h1&gt;" style="whiteSpace=wrap;html=1;rounded=0;" parent="1" vertex="1">
          <mxGeometry x="-114.5" y="328" width="107" height="49" as="geometry" />
        </mxCell>
        <mxCell id="RXXReTnxs_ncUNw5jES5-3" value="&lt;font style=&quot;font-size: 19px;&quot;&gt;Book&lt;/font&gt;" style="rhombus;whiteSpace=wrap;html=1;" parent="1" vertex="1">
          <mxGeometry x="-371" y="320" width="66" height="65" as="geometry" />
        </mxCell>
        <mxCell id="kRr0m0Q8y-r7eN-1j4KO-1" value="&lt;span style=&quot;font-size: 14px;&quot;&gt;Model&lt;/span&gt;" style="ellipse;whiteSpace=wrap;html=1;rotation=0;" parent="1" vertex="1">
          <mxGeometry x="633" y="93" width="108.5" height="37" as="geometry" />
        </mxCell>
        <mxCell id="kRr0m0Q8y-r7eN-1j4KO-2" value="&lt;u style=&quot;&quot;&gt;&lt;font style=&quot;font-size: 12px;&quot;&gt;AirplaneID&lt;/font&gt;&lt;/u&gt;" style="ellipse;whiteSpace=wrap;html=1;rotation=0;fillColor=#f8cecc;strokeColor=#b85450;" parent="1" vertex="1">
          <mxGeometry x="412.75" y="105.5" width="108.5" height="37" as="geometry" />
        </mxCell>
        <mxCell id="kRr0m0Q8y-r7eN-1j4KO-3" value="" style="endArrow=none;html=1;rounded=0;entryX=1;entryY=1;entryDx=0;entryDy=0;exitX=0;exitY=0.25;exitDx=0;exitDy=0;" parent="1" source="j6KMdEsS2Ehn0cWHgv-K-8" target="kRr0m0Q8y-r7eN-1j4KO-2" edge="1">
          <mxGeometry width="50" height="50" relative="1" as="geometry">
            <mxPoint x="910" y="284" as="sourcePoint" />
            <mxPoint x="960" y="234" as="targetPoint" />
          </mxGeometry>
        </mxCell>
        <mxCell id="kRr0m0Q8y-r7eN-1j4KO-4" value="" style="endArrow=none;html=1;rounded=0;entryX=0.5;entryY=1;entryDx=0;entryDy=0;exitX=0.375;exitY=-0.025;exitDx=0;exitDy=0;exitPerimeter=0;" parent="1" source="j6KMdEsS2Ehn0cWHgv-K-8" target="D8szwjgX1KIRaP4R6oDy-124" edge="1">
          <mxGeometry width="50" height="50" relative="1" as="geometry">
            <mxPoint x="910" y="284" as="sourcePoint" />
            <mxPoint x="960" y="234" as="targetPoint" />
          </mxGeometry>
        </mxCell>
        <mxCell id="kRr0m0Q8y-r7eN-1j4KO-5" value="" style="endArrow=none;html=1;rounded=0;exitX=0.75;exitY=0;exitDx=0;exitDy=0;entryX=0.5;entryY=1;entryDx=0;entryDy=0;" parent="1" source="j6KMdEsS2Ehn0cWHgv-K-8" target="kRr0m0Q8y-r7eN-1j4KO-1" edge="1">
          <mxGeometry width="50" height="50" relative="1" as="geometry">
            <mxPoint x="910" y="284" as="sourcePoint" />
            <mxPoint x="960" y="234" as="targetPoint" />
          </mxGeometry>
        </mxCell>
        <mxCell id="kRr0m0Q8y-r7eN-1j4KO-6" value="&lt;span style=&quot;font-size: 14px;&quot;&gt;Seat_Class&lt;/span&gt;" style="ellipse;whiteSpace=wrap;html=1;rotation=0;" parent="1" vertex="1">
          <mxGeometry x="299.75" y="815" width="108.5" height="37" as="geometry" />
        </mxCell>
        <mxCell id="kRr0m0Q8y-r7eN-1j4KO-7" value="" style="endArrow=none;html=1;rounded=0;exitX=0.334;exitY=0.034;exitDx=0;exitDy=0;exitPerimeter=0;" parent="1" source="kRr0m0Q8y-r7eN-1j4KO-6" edge="1">
          <mxGeometry width="50" height="50" relative="1" as="geometry">
            <mxPoint x="273" y="739" as="sourcePoint" />
            <mxPoint x="323" y="741" as="targetPoint" />
          </mxGeometry>
        </mxCell>
        <mxCell id="n_CS5bZj2rvVypA6ErZw-1" value="&lt;h1 style=&quot;border-color: var(--border-color);&quot;&gt;&lt;span style=&quot;font-size: 21px;&quot;&gt;Baggage&lt;/span&gt;&lt;/h1&gt;" style="whiteSpace=wrap;html=1;rounded=0;" parent="1" vertex="1">
          <mxGeometry x="-294.5" y="801.5" width="112.5" height="43.5" as="geometry" />
        </mxCell>
        <mxCell id="n_CS5bZj2rvVypA6ErZw-2" value="&lt;font style=&quot;font-size: 17px;&quot;&gt;Has&lt;/font&gt;" style="rhombus;whiteSpace=wrap;html=1;direction=south;" parent="1" vertex="1">
          <mxGeometry x="-271" y="640.5" width="65" height="65" as="geometry" />
        </mxCell>
      </root>
    </mxGraphModel>
  </diagram>
</mxfile>
